<?xml version="1.0" encoding="utf-8" standalone="no"?>
<!DOCTYPE svg PUBLIC "-//W3C//DTD SVG 1.1//EN"
  "http://www.w3.org/Graphics/SVG/1.1/DTD/svg11.dtd">
<svg xmlns:xlink="http://www.w3.org/1999/xlink" width="979.2pt" height="978.950625pt" viewBox="0 0 979.2 978.950625" xmlns="http://www.w3.org/2000/svg" version="1.1">
 <metadata>
  <rdf:RDF xmlns:dc="http://purl.org/dc/elements/1.1/" xmlns:cc="http://creativecommons.org/ns#" xmlns:rdf="http://www.w3.org/1999/02/22-rdf-syntax-ns#">
   <cc:Work>
    <dc:type rdf:resource="http://purl.org/dc/dcmitype/StillImage"/>
    <dc:date>2026-07-21T18:38:14.491388</dc:date>
    <dc:format>image/svg+xml</dc:format>
    <dc:creator>
     <cc:Agent>
      <dc:title>Matplotlib v3.10.7, https://matplotlib.org/</dc:title>
     </cc:Agent>
    </dc:creator>
   </cc:Work>
  </rdf:RDF>
 </metadata>
 <defs>
  <style type="text/css">*{stroke-linejoin: round; stroke-linecap: butt}</style>
 </defs>
 <g id="figure_1">
  <g id="patch_1">
   <path d="M 0 978.950625 
L 979.2 978.950625 
L 979.2 0 
L 0 0 
z
" style="fill: #ffffff"/>
  </g>
  <g id="axes_1">
   <g id="patch_2">
    <path d="M 707.151191 644.823088 
Q 780.793034 538.921916 833.029596 422.46481 
" clip-path="url(#p4e2d2a1712)" style="fill: none; stroke: #9aa7b4; stroke-width: 1.2; stroke-linecap: round"/>
    <path d="M 826.798206 427.560866 
L 833.029596 422.46481 
L 833.367607 430.507555 
z
" clip-path="url(#p4e2d2a1712)" style="fill: #9aa7b4; stroke: #9aa7b4; stroke-width: 1.2; stroke-linecap: round"/>
   </g>
   <g id="patch_3">
    <path d="M 693.540383 652.469912 
Q 598.579339 658.927993 507.658093 682.10076 
" clip-path="url(#p4e2d2a1712)" style="fill: none; stroke: #9aa7b4; stroke-width: 1.2; stroke-linecap: round"/>
    <path d="M 515.524154 683.811048 
L 507.658093 682.10076 
L 513.745961 676.834084 
z
" clip-path="url(#p4e2d2a1712)" style="fill: #9aa7b4; stroke: #9aa7b4; stroke-width: 1.2; stroke-linecap: round"/>
   </g>
   <g id="patch_4">
    <path d="M 695.175379 646.834127 
Q 606.140246 582.752484 508.116561 536.599866 
" clip-path="url(#p4e2d2a1712)" style="fill: none; stroke: #9aa7b4; stroke-width: 1.2; stroke-linecap: round"/>
    <path d="M 513.097128 542.923943 
L 508.116561 536.599866 
L 516.164163 536.409859 
z
" clip-path="url(#p4e2d2a1712)" style="fill: #9aa7b4; stroke: #9aa7b4; stroke-width: 1.2; stroke-linecap: round"/>
   </g>
   <g id="patch_5">
    <path d="M 710.843136 651.779047 
Q 795.50741 650.037031 877.172045 633.461904 
" clip-path="url(#p4e2d2a1712)" style="fill: none; stroke: #9aa7b4; stroke-width: 1.2; stroke-linecap: round"/>
    <path d="M 869.399841 631.365993 
L 877.172045 633.461904 
L 870.831993 638.422121 
z
" clip-path="url(#p4e2d2a1712)" style="fill: #9aa7b4; stroke: #9aa7b4; stroke-width: 1.2; stroke-linecap: round"/>
   </g>
   <g id="patch_6">
    <path d="M 617.85396 396.529593 
Q 555.071378 455.004361 504.573924 522.68541 
" clip-path="url(#p4e2d2a1712)" style="fill: none; stroke: #9aa7b4; stroke-width: 1.2; stroke-linecap: round"/>
    <path d="M 511.764921 519.067459 
L 504.573924 522.68541 
L 505.994161 514.761842 
z
" clip-path="url(#p4e2d2a1712)" style="fill: #9aa7b4; stroke: #9aa7b4; stroke-width: 1.2; stroke-linecap: round"/>
   </g>
   <g id="patch_7">
    <path d="M 620.023296 398.228285 
Q 546.828298 531.171693 500.170111 674.159511 
" clip-path="url(#p4e2d2a1712)" style="fill: none; stroke: #9aa7b4; stroke-width: 1.2; stroke-linecap: round"/>
    <path d="M 505.826036 668.431465 
L 500.170111 674.159511 
L 498.981229 666.197944 
z
" clip-path="url(#p4e2d2a1712)" style="fill: #9aa7b4; stroke: #9aa7b4; stroke-width: 1.2; stroke-linecap: round"/>
   </g>
   <g id="patch_8">
    <path d="M 615.626653 391.73885 
Q 535.32116 402.265788 459.45799 426.500937 
" clip-path="url(#p4e2d2a1712)" style="fill: none; stroke: #9aa7b4; stroke-width: 1.2; stroke-linecap: round"/>
    <path d="M 467.41203 427.739185 
L 459.45799 426.500937 
L 465.221013 420.880654 
z
" clip-path="url(#p4e2d2a1712)" style="fill: #9aa7b4; stroke: #9aa7b4; stroke-width: 1.2; stroke-linecap: round"/>
   </g>
   <g id="patch_9">
    <path d="M 632.711547 392.338601 
Q 729.280262 411.097757 826.296845 412.037955 
" clip-path="url(#p4e2d2a1712)" style="fill: none; stroke: #9aa7b4; stroke-width: 1.2; stroke-linecap: round"/>
    <path d="M 819.13207 408.368352 
L 826.296845 412.037955 
L 819.062297 415.568014 
z
" clip-path="url(#p4e2d2a1712)" style="fill: #9aa7b4; stroke: #9aa7b4; stroke-width: 1.2; stroke-linecap: round"/>
   </g>
   <g id="patch_10">
    <path d="M 615.571611 390.187088 
Q 521.289592 385.488953 429.049331 397.710345 
" clip-path="url(#p4e2d2a1712)" style="fill: none; stroke: #9aa7b4; stroke-width: 1.2; stroke-linecap: round"/>
    <path d="M 436.659804 400.333455 
L 429.049331 397.710345 
L 435.714103 393.195833 
z
" clip-path="url(#p4e2d2a1712)" style="fill: #9aa7b4; stroke: #9aa7b4; stroke-width: 1.2; stroke-linecap: round"/>
   </g>
   <g id="patch_11">
    <path d="M 615.666766 389.305607 
Q 515.165421 373.860443 414.882738 376.889719 
" clip-path="url(#p4e2d2a1712)" style="fill: none; stroke: #9aa7b4; stroke-width: 1.2; stroke-linecap: round"/>
    <path d="M 422.188153 380.270684 
L 414.882738 376.889719 
L 421.970759 373.073966 
z
" clip-path="url(#p4e2d2a1712)" style="fill: #9aa7b4; stroke: #9aa7b4; stroke-width: 1.2; stroke-linecap: round"/>
   </g>
   <g id="patch_12">
    <path d="M 624.348541 399.316809 
Q 626.608107 524.539088 651.663387 645.868622 
" clip-path="url(#p4e2d2a1712)" style="fill: none; stroke: #9aa7b4; stroke-width: 1.2; stroke-linecap: round"/>
    <path d="M 653.732878 638.089342 
L 651.663387 645.868622 
L 646.681657 639.545461 
z
" clip-path="url(#p4e2d2a1712)" style="fill: #9aa7b4; stroke: #9aa7b4; stroke-width: 1.2; stroke-linecap: round"/>
   </g>
   <g id="patch_13">
    <path d="M 711.596214 115.284348 
Q 656.515513 244.093893 626.629696 379.575582 
" clip-path="url(#p4e2d2a1712)" style="fill: none; stroke: #9aa7b4; stroke-width: 1.2; stroke-linecap: round"/>
    <path d="M 631.696138 373.320091 
L 626.629696 379.575582 
L 624.665168 371.769134 
z
" clip-path="url(#p4e2d2a1712)" style="fill: #9aa7b4; stroke: #9aa7b4; stroke-width: 1.2; stroke-linecap: round"/>
   </g>
   <g id="patch_14">
    <path d="M 253.775372 345.854663 
Q 182.37029 274.526143 100.316434 218.113638 
" clip-path="url(#p4e2d2a1712)" style="fill: none; stroke: #9aa7b4; stroke-width: 1.2; stroke-linecap: round"/>
    <path d="M 104.210004 225.159211 
L 100.316434 218.113638 
L 108.289035 219.226126 
z
" clip-path="url(#p4e2d2a1712)" style="fill: #9aa7b4; stroke: #9aa7b4; stroke-width: 1.2; stroke-linecap: round"/>
   </g>
   <g id="patch_15">
    <path d="M 253.774309 345.856895 
Q 182.356941 274.554436 100.295939 218.169489 
" clip-path="url(#p4e2d2a1712)" style="fill: none; stroke: #9aa7b4; stroke-width: 1.2; stroke-linecap: round"/>
    <path d="M 104.191403 225.214016 
L 100.295939 218.169489 
L 108.268839 219.279834 
z
" clip-path="url(#p4e2d2a1712)" style="fill: #9aa7b4; stroke: #9aa7b4; stroke-width: 1.2; stroke-linecap: round"/>
   </g>
   <g id="patch_16">
    <path d="M 441.021642 425.950313 
Q 358.455234 382.63713 270.723441 355.324691 
" clip-path="url(#p4e2d2a1712)" style="fill: none; stroke: #9aa7b4; stroke-width: 1.2; stroke-linecap: round"/>
    <path d="M 276.527921 360.902147 
L 270.723441 355.324691 
L 278.668093 354.027581 
z
" clip-path="url(#p4e2d2a1712)" style="fill: #9aa7b4; stroke: #9aa7b4; stroke-width: 1.2; stroke-linecap: round"/>
   </g>
   <g id="patch_17">
    <path d="M 286.88944 569.950251 
Q 284.011542 464.712207 262.291747 363.082708 
" clip-path="url(#p4e2d2a1712)" style="fill: none; stroke: #9aa7b4; stroke-width: 1.2; stroke-linecap: round"/>
    <path d="M 260.276018 370.876092 
L 262.291747 363.082708 
L 267.317017 369.371321 
z
" clip-path="url(#p4e2d2a1712)" style="fill: #9aa7b4; stroke: #9aa7b4; stroke-width: 1.2; stroke-linecap: round"/>
   </g>
   <g id="patch_18">
    <path d="M 293.997961 573.382299 
Q 374.219373 512.181745 441.087397 438.435651 
" clip-path="url(#p4e2d2a1712)" style="fill: none; stroke: #9aa7b4; stroke-width: 1.2; stroke-linecap: round"/>
    <path d="M 433.58413 441.351297 
L 441.087397 438.435651 
L 438.917954 446.187652 
z
" clip-path="url(#p4e2d2a1712)" style="fill: #9aa7b4; stroke: #9aa7b4; stroke-width: 1.2; stroke-linecap: round"/>
   </g>
   <g id="patch_19">
    <path d="M 295.688541 577.546125 
Q 393.961552 565.019689 487.046947 535.297438 
" clip-path="url(#p4e2d2a1712)" style="fill: none; stroke: #9aa7b4; stroke-width: 1.2; stroke-linecap: round"/>
    <path d="M 479.093085 534.058051 
L 487.046947 535.297438 
L 481.28312 540.916895 
z
" clip-path="url(#p4e2d2a1712)" style="fill: #9aa7b4; stroke: #9aa7b4; stroke-width: 1.2; stroke-linecap: round"/>
   </g>
   <g id="patch_20">
    <path d="M 281.453286 585.177494 
Q 211.386342 667.402346 158.182262 759.863948 
" clip-path="url(#p4e2d2a1712)" style="fill: none; stroke: #9aa7b4; stroke-width: 1.2; stroke-linecap: round"/>
    <path d="M 164.893513 755.418827 
L 158.182262 759.863948 
L 158.652916 751.827874 
z
" clip-path="url(#p4e2d2a1712)" style="fill: #9aa7b4; stroke: #9aa7b4; stroke-width: 1.2; stroke-linecap: round"/>
   </g>
   <g id="patch_21">
    <path d="M 291.250845 586.201859 
Q 308.016273 616.127982 328.417294 642.005857 
" clip-path="url(#p4e2d2a1712)" style="fill: none; stroke: #9aa7b4; stroke-width: 1.2; stroke-linecap: round"/>
    <path d="M 326.786856 634.122858 
L 328.417294 642.005857 
L 321.132632 638.580409 
z
" clip-path="url(#p4e2d2a1712)" style="fill: #9aa7b4; stroke: #9aa7b4; stroke-width: 1.2; stroke-linecap: round"/>
   </g>
   <g id="patch_22">
    <path d="M 292.839569 572.129834 
Q 360.308476 495.479669 412.029472 409.005491 
" clip-path="url(#p4e2d2a1712)" style="fill: none; stroke: #9aa7b4; stroke-width: 1.2; stroke-linecap: round"/>
    <path d="M 405.244148 413.336701 
L 412.029472 409.005491 
L 411.423246 417.032476 
z
" clip-path="url(#p4e2d2a1712)" style="fill: #9aa7b4; stroke: #9aa7b4; stroke-width: 1.2; stroke-linecap: round"/>
   </g>
   <g id="patch_23">
    <path d="M 292.128458 571.560704 
Q 354.28059 483.895657 398.82392 387.588848 
" clip-path="url(#p4e2d2a1712)" style="fill: none; stroke: #9aa7b4; stroke-width: 1.2; stroke-linecap: round"/>
    <path d="M 392.534003 392.612487 
L 398.82392 387.588848 
L 399.068881 395.634965 
z
" clip-path="url(#p4e2d2a1712)" style="fill: #9aa7b4; stroke: #9aa7b4; stroke-width: 1.2; stroke-linecap: round"/>
   </g>
   <g id="patch_24">
    <path d="M 287.781015 587.239461 
Q 298.95692 722.556327 334.683116 852.14621 
" clip-path="url(#p4e2d2a1712)" style="fill: none; stroke: #9aa7b4; stroke-width: 1.2; stroke-linecap: round"/>
    <path d="M 336.240088 844.248372 
L 334.683116 852.14621 
L 329.299029 846.161929 
z
" clip-path="url(#p4e2d2a1712)" style="fill: #9aa7b4; stroke: #9aa7b4; stroke-width: 1.2; stroke-linecap: round"/>
   </g>
   <g id="patch_25">
    <path d="M 334.224229 642.277201 
Q 311.935308 498.504378 263.704169 362.676506 
" clip-path="url(#p4e2d2a1712)" style="fill: none; stroke: #9aa7b4; stroke-width: 1.2; stroke-linecap: round"/>
    <path d="M 262.720964 370.666081 
L 263.704169 362.676506 
L 269.505906 368.256815 
z
" clip-path="url(#p4e2d2a1712)" style="fill: #9aa7b4; stroke: #9aa7b4; stroke-width: 1.2; stroke-linecap: round"/>
   </g>
   <g id="patch_26">
    <path d="M 340.199344 643.547925 
Q 402.042462 546.264371 444.484276 440.541855 
" clip-path="url(#p4e2d2a1712)" style="fill: none; stroke: #9aa7b4; stroke-width: 1.2; stroke-linecap: round"/>
    <path d="M 438.461092 445.882383 
L 444.484276 440.541855 
L 445.142789 448.56472 
z
" clip-path="url(#p4e2d2a1712)" style="fill: #9aa7b4; stroke: #9aa7b4; stroke-width: 1.2; stroke-linecap: round"/>
   </g>
   <g id="patch_27">
    <path d="M 342.967471 646.408202 
Q 421.570299 599.118799 489.359178 539.343913 
" clip-path="url(#p4e2d2a1712)" style="fill: none; stroke: #9aa7b4; stroke-width: 1.2; stroke-linecap: round"/>
    <path d="M 481.577843 541.405666 
L 489.359178 539.343913 
L 486.339779 546.806033 
z
" clip-path="url(#p4e2d2a1712)" style="fill: #9aa7b4; stroke: #9aa7b4; stroke-width: 1.2; stroke-linecap: round"/>
   </g>
   <g id="patch_28">
    <path d="M 327.848449 654.843244 
Q 239.14487 701.513216 161.44537 762.667512 
" clip-path="url(#p4e2d2a1712)" style="fill: none; stroke: #9aa7b4; stroke-width: 1.2; stroke-linecap: round"/>
    <path d="M 169.32967 761.043379 
L 161.44537 762.667512 
L 164.876643 755.385592 
z
" clip-path="url(#p4e2d2a1712)" style="fill: #9aa7b4; stroke: #9aa7b4; stroke-width: 1.2; stroke-linecap: round"/>
   </g>
   <g id="patch_29">
    <path d="M 339.001235 642.904314 
Q 388.192084 529.511456 415.332909 410.312477 
" clip-path="url(#p4e2d2a1712)" style="fill: none; stroke: #9aa7b4; stroke-width: 1.2; stroke-linecap: round"/>
    <path d="M 410.22427 416.533555 
L 415.332909 410.312477 
L 417.244587 418.132035 
z
" clip-path="url(#p4e2d2a1712)" style="fill: #9aa7b4; stroke: #9aa7b4; stroke-width: 1.2; stroke-linecap: round"/>
   </g>
   <g id="patch_30">
    <path d="M 338.417053 642.681778 
Q 382.182431 517.89251 401.874898 388.494316 
" clip-path="url(#p4e2d2a1712)" style="fill: none; stroke: #9aa7b4; stroke-width: 1.2; stroke-linecap: round"/>
    <path d="M 397.232617 395.07073 
L 401.874898 388.494316 
L 404.350661 396.153989 
z
" clip-path="url(#p4e2d2a1712)" style="fill: #9aa7b4; stroke: #9aa7b4; stroke-width: 1.2; stroke-linecap: round"/>
   </g>
   <g id="patch_31">
    <path d="M 334.790307 659.467143 
Q 326.898539 756.389723 336.54348 851.794067 
" clip-path="url(#p4e2d2a1712)" style="fill: none; stroke: #9aa7b4; stroke-width: 1.2; stroke-linecap: round"/>
    <path d="M 339.401027 844.268482 
L 336.54348 851.794067 
L 332.237541 844.992678 
z
" clip-path="url(#p4e2d2a1712)" style="fill: #9aa7b4; stroke: #9aa7b4; stroke-width: 1.2; stroke-linecap: round"/>
   </g>
   <g id="patch_32">
    <path d="M 318.517491 619.381392 
Q 407.658165 585.959714 488.13424 537.679811 
" clip-path="url(#p4e2d2a1712)" style="fill: none; stroke: #9aa7b4; stroke-width: 1.2; stroke-linecap: round"/>
    <path d="M 480.108073 538.296785 
L 488.13424 537.679811 
L 483.812119 544.470928 
z
" clip-path="url(#p4e2d2a1712)" style="fill: #9aa7b4; stroke: #9aa7b4; stroke-width: 1.2; stroke-linecap: round"/>
   </g>
   <g id="patch_33">
    <path d="M 303.531078 627.665548 
Q 225.20692 688.356057 160.083729 761.230883 
" clip-path="url(#p4e2d2a1712)" style="fill: none; stroke: #9aa7b4; stroke-width: 1.2; stroke-linecap: round"/>
    <path d="M 167.565697 758.261008 
L 160.083729 761.230883 
L 162.19701 753.463384 
z
" clip-path="url(#p4e2d2a1712)" style="fill: #9aa7b4; stroke: #9aa7b4; stroke-width: 1.2; stroke-linecap: round"/>
   </g>
   <g id="patch_34">
    <path d="M 407.33603 385.063506 
Q 443.368759 458.225831 491.047719 522.716513 
" clip-path="url(#p4e2d2a1712)" style="fill: none; stroke: #9aa7b4; stroke-width: 1.2; stroke-linecap: round"/>
    <path d="M 489.662188 514.786803 
L 491.047719 522.716513 
L 483.872632 519.067112 
z
" clip-path="url(#p4e2d2a1712)" style="fill: #9aa7b4; stroke: #9aa7b4; stroke-width: 1.2; stroke-linecap: round"/>
   </g>
   <g id="patch_35">
    <path d="M 330.402824 858.450813 
Q 250.00915 808.228234 163.125513 773.846932 
" clip-path="url(#p4e2d2a1712)" style="fill: none; stroke: #9aa7b4; stroke-width: 1.2; stroke-linecap: round"/>
    <path d="M 168.495751 779.843643 
L 163.125513 773.846932 
L 171.145025 773.148768 
z
" clip-path="url(#p4e2d2a1712)" style="fill: #9aa7b4; stroke: #9aa7b4; stroke-width: 1.2; stroke-linecap: round"/>
   </g>
   <g id="patch_36">
    <path d="M 489.373036 680.307539 
Q 397.396866 622.395222 297.647616 582.755937 
" clip-path="url(#p4e2d2a1712)" style="fill: none; stroke: #9aa7b4; stroke-width: 1.2; stroke-linecap: round"/>
    <path d="M 303.009181 588.760404 
L 297.647616 582.755937 
L 305.668128 582.069365 
z
" clip-path="url(#p4e2d2a1712)" style="fill: #9aa7b4; stroke: #9aa7b4; stroke-width: 1.2; stroke-linecap: round"/>
   </g>
   <g id="patch_37">
    <path d="M 488.414662 682.361952 
Q 418.278283 660.831543 346.789013 652.148727 
" clip-path="url(#p4e2d2a1712)" style="fill: none; stroke: #9aa7b4; stroke-width: 1.2; stroke-linecap: round"/>
    <path d="M 353.502435 656.590569 
L 346.789013 652.148727 
L 354.37054 649.443095 
z
" clip-path="url(#p4e2d2a1712)" style="fill: #9aa7b4; stroke: #9aa7b4; stroke-width: 1.2; stroke-linecap: round"/>
   </g>
   <g id="patch_38">
    <path d="M 495.196169 676.419695 
Q 470.844332 539.038448 421.865996 409.841213 
" clip-path="url(#p4e2d2a1712)" style="fill: none; stroke: #9aa7b4; stroke-width: 1.2; stroke-linecap: round"/>
    <path d="M 421.052025 417.849799 
L 421.865996 409.841213 
L 427.784482 415.297542 
z
" clip-path="url(#p4e2d2a1712)" style="fill: #9aa7b4; stroke: #9aa7b4; stroke-width: 1.2; stroke-linecap: round"/>
   </g>
   <g id="patch_39">
    <path d="M 488.772699 681.421223 
Q 407.020082 645.404878 321.443409 624.972781 
" clip-path="url(#p4e2d2a1712)" style="fill: none; stroke: #9aa7b4; stroke-width: 1.2; stroke-linecap: round"/>
    <path d="M 327.610538 630.146419 
L 321.443409 624.972781 
L 329.282597 623.143261 
z
" clip-path="url(#p4e2d2a1712)" style="fill: #9aa7b4; stroke: #9aa7b4; stroke-width: 1.2; stroke-linecap: round"/>
   </g>
   <g id="patch_40">
    <path d="M 494.988176 676.455465 
Q 464.828176 527.355141 407.860318 387.765538 
" clip-path="url(#p4e2d2a1712)" style="fill: none; stroke: #9aa7b4; stroke-width: 1.2; stroke-linecap: round"/>
    <path d="M 407.247756 395.792042 
L 407.860318 387.765538 
L 413.913984 393.07149 
z
" clip-path="url(#p4e2d2a1712)" style="fill: #9aa7b4; stroke: #9aa7b4; stroke-width: 1.2; stroke-linecap: round"/>
   </g>
   <g id="patch_41">
    <path d="M 490.32131 690.827026 
Q 409.409679 766.158722 344.444329 853.929767 
" clip-path="url(#p4e2d2a1712)" style="fill: none; stroke: #9aa7b4; stroke-width: 1.2; stroke-linecap: round"/>
    <path d="M 351.621426 850.284321 
L 344.444329 853.929767 
L 345.83423 846.000822 
z
" clip-path="url(#p4e2d2a1712)" style="fill: #9aa7b4; stroke: #9aa7b4; stroke-width: 1.2; stroke-linecap: round"/>
   </g>
   <g id="patch_42">
    <path d="M 647.782211 650.932059 
Q 582.138787 587.686957 507.312791 538.035011 
" clip-path="url(#p4e2d2a1712)" style="fill: none; stroke: #9aa7b4; stroke-width: 1.2; stroke-linecap: round"/>
    <path d="M 511.32165 545.01563 
L 507.312791 538.035011 
L 515.302602 539.016295 
z
" clip-path="url(#p4e2d2a1712)" style="fill: #9aa7b4; stroke: #9aa7b4; stroke-width: 1.2; stroke-linecap: round"/>
   </g>
   <g id="patch_43">
    <path d="M 645.357493 657.674284 
Q 574.748321 663.836776 507.619478 681.934373 
" clip-path="url(#p4e2d2a1712)" style="fill: none; stroke: #9aa7b4; stroke-width: 1.2; stroke-linecap: round"/>
    <path d="M 515.50836 683.536103 
L 507.619478 681.934373 
L 513.634191 676.584305 
z
" clip-path="url(#p4e2d2a1712)" style="fill: #9aa7b4; stroke: #9aa7b4; stroke-width: 1.2; stroke-linecap: round"/>
   </g>
   <g id="patch_44">
    <path d="M 648.833561 650.015858 
Q 562.461113 534.319448 457.0517 437.646078 
" clip-path="url(#p4e2d2a1712)" style="fill: none; stroke: #9aa7b4; stroke-width: 1.2; stroke-linecap: round"/>
    <path d="M 459.924738 445.165762 
L 457.0517 437.646078 
L 464.791271 439.859458 
z
" clip-path="url(#p4e2d2a1712)" style="fill: #9aa7b4; stroke: #9aa7b4; stroke-width: 1.2; stroke-linecap: round"/>
   </g>
   <g id="patch_45">
    <path d="M 653.864209 648.30428 
Q 651.604643 523.082001 626.549363 401.752466 
" clip-path="url(#p4e2d2a1712)" style="fill: none; stroke: #9aa7b4; stroke-width: 1.2; stroke-linecap: round"/>
    <path d="M 624.479872 409.531747 
L 626.549363 401.752466 
L 631.531093 408.075627 
z
" clip-path="url(#p4e2d2a1712)" style="fill: #9aa7b4; stroke: #9aa7b4; stroke-width: 1.2; stroke-linecap: round"/>
   </g>
   <g id="patch_46">
    <path d="M 784.91284 881.727962 
Q 732.437719 767.58661 660.578716 666.196103 
" clip-path="url(#p4e2d2a1712)" style="fill: none; stroke: #9aa7b4; stroke-width: 1.2; stroke-linecap: round"/>
    <path d="M 661.804881 674.152014 
L 660.578716 666.196103 
L 667.679144 669.988718 
z
" clip-path="url(#p4e2d2a1712)" style="fill: #9aa7b4; stroke: #9aa7b4; stroke-width: 1.2; stroke-linecap: round"/>
   </g>
   <g id="PathCollection_1">
    <path d="M 669.096055 540.431814 
C 671.468104 540.431814 673.743319 539.489389 675.420611 537.812097 
C 677.097902 536.134806 678.040327 533.859591 678.040327 531.487542 
C 678.040327 529.115494 677.097902 526.840278 675.420611 525.162987 
C 673.743319 523.485695 671.468104 522.54327 669.096055 522.54327 
C 666.724007 522.54327 664.448792 523.485695 662.7715 525.162987 
C 661.094208 526.840278 660.151784 529.115494 660.151784 531.487542 
C 660.151784 533.859591 661.094208 536.134806 662.7715 537.812097 
C 664.448792 539.489389 666.724007 540.431814 669.096055 540.431814 
z
" clip-path="url(#p4e2d2a1712)" style="fill: #4e79a7; fill-opacity: 0.92; stroke: #2f4b6b; stroke-opacity: 0.92; stroke-width: 0.6"/>
    <path d="M 837.638618 426.243988 
C 841.389156 426.243988 844.986587 424.753883 847.638618 422.101852 
C 850.290649 419.449821 851.780754 415.85239 851.780754 412.101852 
C 851.780754 408.351314 850.290649 404.753883 847.638618 402.101852 
C 844.986587 399.449821 841.389156 397.959717 837.638618 397.959717 
C 833.88808 397.959717 830.290649 399.449821 827.638618 402.101852 
C 824.986587 404.753883 823.496482 408.351314 823.496482 412.101852 
C 823.496482 415.85239 824.986587 419.449821 827.638618 422.101852 
C 830.290649 424.753883 833.88808 426.243988 837.638618 426.243988 
z
" clip-path="url(#p4e2d2a1712)" style="fill: #4e79a7; fill-opacity: 0.92; stroke: #2f4b6b; stroke-opacity: 0.92; stroke-width: 0.6"/>
    <path d="M 888.277686 642.986189 
C 891.415611 642.986189 894.425438 641.739478 896.644286 639.52063 
C 898.863135 637.301781 900.109846 634.291955 900.109846 631.154029 
C 900.109846 628.016104 898.863135 625.006278 896.644286 622.787429 
C 894.425438 620.568581 891.415611 619.32187 888.277686 619.32187 
C 885.139761 619.32187 882.129934 620.568581 879.911086 622.787429 
C 877.692237 625.006278 876.445526 628.016104 876.445526 631.154029 
C 876.445526 634.291955 877.692237 637.301781 879.911086 639.52063 
C 882.129934 641.739478 885.139761 642.986189 888.277686 642.986189 
z
" clip-path="url(#p4e2d2a1712)" style="fill: #4e79a7; fill-opacity: 0.92; stroke: #2f4b6b; stroke-opacity: 0.92; stroke-width: 0.6"/>
    <path d="M 702.185032 669.806208 
C 706.929129 669.806208 711.479559 667.921358 714.834142 664.566775 
C 718.188726 661.212191 720.073575 656.661761 720.073575 651.917664 
C 720.073575 647.173567 718.188726 642.623137 714.834142 639.268553 
C 711.479559 635.91397 706.929129 634.02912 702.185032 634.02912 
C 697.440934 634.02912 692.890504 635.91397 689.535921 639.268553 
C 686.181338 642.623137 684.296488 647.173567 684.296488 651.917664 
C 684.296488 656.661761 686.181338 661.212191 689.535921 664.566775 
C 692.890504 667.921358 697.440934 669.806208 702.185032 669.806208 
z
" clip-path="url(#p4e2d2a1712)" style="fill: #4e79a7; fill-opacity: 0.92; stroke: #2f4b6b; stroke-opacity: 0.92; stroke-width: 0.6"/>
    <path d="M 624.219859 415.553709 
C 630.823363 415.553709 637.157294 412.930109 641.826676 408.260726 
C 646.496059 403.591344 649.119658 397.257414 649.119658 390.65391 
C 649.119658 384.050406 646.496059 377.716475 641.826676 373.047093 
C 637.157294 368.37771 630.823363 365.75411 624.219859 365.75411 
C 617.616355 365.75411 611.282425 368.37771 606.613042 373.047093 
C 601.94366 377.716475 599.32006 384.050406 599.32006 390.65391 
C 599.32006 397.257414 601.94366 403.591344 606.613042 408.260726 
C 611.282425 412.930109 617.616355 415.553709 624.219859 415.553709 
z
" clip-path="url(#p4e2d2a1712)" style="fill: #4e79a7; fill-opacity: 0.92; stroke: #2f4b6b; stroke-opacity: 0.92; stroke-width: 0.6"/>
    <path d="M 715.024595 119.162289 
C 718.16252 119.162289 721.172347 117.915578 723.391195 115.696729 
C 725.610044 113.477881 726.856755 110.468055 726.856755 107.330129 
C 726.856755 104.192204 725.610044 101.182377 723.391195 98.963529 
C 721.172347 96.744681 718.16252 95.49797 715.024595 95.49797 
C 711.88667 95.49797 708.876843 96.744681 706.657995 98.963529 
C 704.439146 101.182377 703.192435 104.192204 703.192435 107.330129 
C 703.192435 110.468055 704.439146 113.477881 706.657995 115.696729 
C 708.876843 117.915578 711.88667 119.162289 715.024595 119.162289 
z
" clip-path="url(#p4e2d2a1712)" style="fill: #4e79a7; fill-opacity: 0.92; stroke: #2f4b6b; stroke-opacity: 0.92; stroke-width: 0.6"/>
    <path d="M 90.943729 223.556567 
C 94.081654 223.556567 97.09148 222.309856 99.310329 220.091008 
C 101.529177 217.872159 102.775888 214.862333 102.775888 211.724408 
C 102.775888 208.586482 101.529177 205.576656 99.310329 203.357807 
C 97.09148 201.138959 94.081654 199.892248 90.943729 199.892248 
C 87.805803 199.892248 84.795977 201.138959 82.577128 203.357807 
C 80.35828 205.576656 79.111569 208.586482 79.111569 211.724408 
C 79.111569 214.862333 80.35828 217.872159 82.577128 220.091008 
C 84.795977 222.309856 87.805803 223.556567 90.943729 223.556567 
z
" clip-path="url(#p4e2d2a1712)" style="fill: #4e79a7; fill-opacity: 0.92; stroke: #2f4b6b; stroke-opacity: 0.92; stroke-width: 0.6"/>
    <path d="M 90.922314 223.615479 
C 94.060239 223.615479 97.070066 222.368768 99.288914 220.14992 
C 101.507763 217.931072 102.754474 214.921245 102.754474 211.78332 
C 102.754474 208.645394 101.507763 205.635568 99.288914 203.416719 
C 97.070066 201.197871 94.060239 199.95116 90.922314 199.95116 
C 87.784389 199.95116 84.774562 201.197871 82.555714 203.416719 
C 80.336865 205.635568 79.090154 208.645394 79.090154 211.78332 
C 79.090154 214.921245 80.336865 217.931072 82.555714 220.14992 
C 84.774562 222.368768 87.784389 223.615479 90.922314 223.615479 
z
" clip-path="url(#p4e2d2a1712)" style="fill: #4e79a7; fill-opacity: 0.92; stroke: #2f4b6b; stroke-opacity: 0.92; stroke-width: 0.6"/>
    <path d="M 259.8788 371.492774 
C 265.048561 371.492774 270.007277 369.438807 273.662849 365.783235 
C 277.318422 362.127662 279.372389 357.168946 279.372389 351.999186 
C 279.372389 346.829426 277.318422 341.87071 273.662849 338.215137 
C 270.007277 334.559565 265.048561 332.505597 259.8788 332.505597 
C 254.70904 332.505597 249.750324 334.559565 246.094752 338.215137 
C 242.439179 341.87071 240.385212 346.829426 240.385212 351.999186 
C 240.385212 357.168946 242.439179 362.127662 246.094752 365.783235 
C 249.750324 369.438807 254.70904 371.492774 259.8788 371.492774 
z
" clip-path="url(#p4e2d2a1712)" style="fill: #4e79a7; fill-opacity: 0.92; stroke: #2f4b6b; stroke-opacity: 0.92; stroke-width: 0.6"/>
    <path d="M 448.671696 449.497902 
C 453.841456 449.497902 458.800172 447.443935 462.455745 443.788362 
C 466.111317 440.13279 468.165285 435.174074 468.165285 430.004314 
C 468.165285 424.834553 466.111317 419.875837 462.455745 416.220265 
C 458.800172 412.564692 453.841456 410.510725 448.671696 410.510725 
C 443.501936 410.510725 438.54322 412.564692 434.887647 416.220265 
C 431.232075 419.875837 429.178107 424.834553 429.178107 430.004314 
C 429.178107 435.174074 431.232075 440.13279 434.887647 443.788362 
C 438.54322 447.443935 443.501936 449.497902 448.671696 449.497902 
z
" clip-path="url(#p4e2d2a1712)" style="fill: #4e79a7; fill-opacity: 0.92; stroke: #2f4b6b; stroke-opacity: 0.92; stroke-width: 0.6"/>
    <path d="M 287.09375 603.506909 
C 293.697254 603.506909 300.031184 600.883309 304.700566 596.213927 
C 309.369949 591.544545 311.993549 585.210614 311.993549 578.60711 
C 311.993549 572.003606 309.369949 565.669676 304.700566 561.000293 
C 300.031184 556.330911 293.697254 553.707311 287.09375 553.707311 
C 280.490246 553.707311 274.156315 556.330911 269.486933 561.000293 
C 264.81755 565.669676 262.19395 572.003606 262.19395 578.60711 
C 262.19395 585.210614 264.81755 591.544545 269.486933 596.213927 
C 274.156315 600.883309 280.490246 603.506909 287.09375 603.506909 
z
" clip-path="url(#p4e2d2a1712)" style="fill: #4e79a7; fill-opacity: 0.92; stroke: #2f4b6b; stroke-opacity: 0.92; stroke-width: 0.6"/>
    <path d="M 335.527613 675.741089 
C 342.131117 675.741089 348.465048 673.117489 353.13443 668.448107 
C 357.803812 663.778725 360.427412 657.444794 360.427412 650.84129 
C 360.427412 644.237786 357.803812 637.903856 353.13443 633.234473 
C 348.465048 628.565091 342.131117 625.941491 335.527613 625.941491 
C 328.924109 625.941491 322.590179 628.565091 317.920796 633.234473 
C 313.251414 637.903856 310.627814 644.237786 310.627814 650.84129 
C 310.627814 657.444794 313.251414 663.778725 317.920796 668.448107 
C 322.590179 673.117489 328.924109 675.741089 335.527613 675.741089 
z
" clip-path="url(#p4e2d2a1712)" style="fill: #4e79a7; fill-opacity: 0.92; stroke: #2f4b6b; stroke-opacity: 0.92; stroke-width: 0.6"/>
    <path d="M 417.814203 417.135665 
C 422.558301 417.135665 427.108731 415.250816 430.463314 411.896232 
C 433.817897 408.541649 435.702747 403.991219 435.702747 399.247122 
C 435.702747 394.503024 433.817897 389.952594 430.463314 386.598011 
C 427.108731 383.243428 422.558301 381.358578 417.814203 381.358578 
C 413.070106 381.358578 408.519676 383.243428 405.165093 386.598011 
C 401.810509 389.952594 399.92566 394.503024 399.92566 399.247122 
C 399.92566 403.991219 401.810509 408.541649 405.165093 411.896232 
C 408.519676 415.250816 413.070106 417.135665 417.814203 417.135665 
z
" clip-path="url(#p4e2d2a1712)" style="fill: #4e79a7; fill-opacity: 0.92; stroke: #2f4b6b; stroke-opacity: 0.92; stroke-width: 0.6"/>
    <path d="M 310.398722 638.511952 
C 314.674993 638.511952 318.776695 636.812971 321.800476 633.78919 
C 324.824256 630.76541 326.523237 626.663708 326.523237 622.387436 
C 326.523237 618.111165 324.824256 614.009463 321.800476 610.985682 
C 318.776695 607.961901 314.674993 606.262921 310.398722 606.262921 
C 306.12245 606.262921 302.020748 607.961901 298.996967 610.985682 
C 295.973187 614.009463 294.274206 618.111165 294.274206 622.387436 
C 294.274206 626.663708 295.973187 630.76541 298.996967 633.78919 
C 302.020748 636.812971 306.12245 638.511952 310.398722 638.511952 
z
" clip-path="url(#p4e2d2a1712)" style="fill: #4e79a7; fill-opacity: 0.92; stroke: #2f4b6b; stroke-opacity: 0.92; stroke-width: 0.6"/>
    <path d="M 403.546635 396.770411 
C 408.716395 396.770411 413.675112 394.716444 417.330684 391.060871 
C 420.986256 387.405299 423.040224 382.446583 423.040224 377.276822 
C 423.040224 372.107062 420.986256 367.148346 417.330684 363.492774 
C 413.675112 359.837201 408.716395 357.783234 403.546635 357.783234 
C 398.376875 357.783234 393.418159 359.837201 389.762587 363.492774 
C 386.107014 367.148346 384.053047 372.107062 384.053047 377.276822 
C 384.053047 382.446583 386.107014 387.405299 389.762587 391.060871 
C 393.418159 394.716444 398.376875 396.770411 403.546635 396.770411 
z
" clip-path="url(#p4e2d2a1712)" style="fill: #4e79a7; fill-opacity: 0.92; stroke: #2f4b6b; stroke-opacity: 0.92; stroke-width: 0.6"/>
    <path d="M 337.730171 880.958907 
C 342.474269 880.958907 347.024699 879.074057 350.379282 875.719474 
C 353.733865 872.36489 355.618715 867.81446 355.618715 863.070363 
C 355.618715 858.326266 353.733865 853.775836 350.379282 850.421253 
C 347.024699 847.066669 342.474269 845.181819 337.730171 845.181819 
C 332.986074 845.181819 328.435644 847.066669 325.081061 850.421253 
C 321.726477 853.775836 319.841627 858.326266 319.841627 863.070363 
C 319.841627 867.81446 321.726477 872.36489 325.081061 875.719474 
C 328.435644 879.074057 332.986074 880.958907 337.730171 880.958907 
z
" clip-path="url(#p4e2d2a1712)" style="fill: #4e79a7; fill-opacity: 0.92; stroke: #2f4b6b; stroke-opacity: 0.92; stroke-width: 0.6"/>
    <path d="M 152.561036 787.606136 
C 157.305133 787.606136 161.855563 785.721286 165.210147 782.366702 
C 168.56473 779.012119 170.44958 774.461689 170.44958 769.717592 
C 170.44958 764.973494 168.56473 760.423064 165.210147 757.068481 
C 161.855563 753.713898 157.305133 751.829048 152.561036 751.829048 
C 147.816939 751.829048 143.266509 753.713898 139.911925 757.068481 
C 136.557342 760.423064 134.672492 764.973494 134.672492 769.717592 
C 134.672492 774.461689 136.557342 779.012119 139.911925 782.366702 
C 143.266509 785.721286 147.816939 787.606136 152.561036 787.606136 
z
" clip-path="url(#p4e2d2a1712)" style="fill: #4e79a7; fill-opacity: 0.92; stroke: #2f4b6b; stroke-opacity: 0.92; stroke-width: 0.6"/>
    <path d="M 496.682377 709.846807 
C 503.285881 709.846807 509.619811 707.223207 514.289194 702.553825 
C 518.958576 697.884442 521.582176 691.550512 521.582176 684.947008 
C 521.582176 678.343504 518.958576 672.009573 514.289194 667.340191 
C 509.619811 662.670809 503.285881 660.047209 496.682377 660.047209 
C 490.078873 660.047209 483.744942 662.670809 479.07556 667.340191 
C 474.406178 672.009573 471.782578 678.343504 471.782578 684.947008 
C 471.782578 691.550512 474.406178 697.884442 479.07556 702.553825 
C 483.744942 707.223207 490.078873 709.846807 496.682377 709.846807 
z
" clip-path="url(#p4e2d2a1712)" style="fill: #4e79a7; fill-opacity: 0.92; stroke: #2f4b6b; stroke-opacity: 0.92; stroke-width: 0.6"/>
    <path d="M 497.834755 554.165594 
C 503.764877 554.165594 509.452915 551.809532 513.646144 547.616302 
C 517.839373 543.423073 520.195435 537.735036 520.195435 531.804914 
C 520.195435 525.874792 517.839373 520.186755 513.646144 515.993526 
C 509.452915 511.800297 503.764877 509.444234 497.834755 509.444234 
C 491.904634 509.444234 486.216596 511.800297 482.023367 515.993526 
C 477.830138 520.186755 475.474076 525.874792 475.474076 531.804914 
C 475.474076 537.735036 477.830138 543.423073 482.023367 547.616302 
C 486.216596 551.809532 491.904634 554.165594 497.834755 554.165594 
z
" clip-path="url(#p4e2d2a1712)" style="fill: #4e79a7; fill-opacity: 0.92; stroke: #2f4b6b; stroke-opacity: 0.92; stroke-width: 0.6"/>
    <path d="M 604.661885 747.465112 
C 607.033934 747.465112 609.309149 746.522687 610.98644 744.845395 
C 612.663732 743.168104 613.606157 740.892889 613.606157 738.52084 
C 613.606157 736.148792 612.663732 733.873577 610.98644 732.196285 
C 609.309149 730.518993 607.033934 729.576568 604.661885 729.576568 
C 602.289836 729.576568 600.014621 730.518993 598.33733 732.196285 
C 596.660038 733.873577 595.717613 736.148792 595.717613 738.52084 
C 595.717613 740.892889 596.660038 743.168104 598.33733 744.845395 
C 600.014621 746.522687 602.289836 747.465112 604.661885 747.465112 
z
" clip-path="url(#p4e2d2a1712)" style="fill: #4e79a7; fill-opacity: 0.92; stroke: #2f4b6b; stroke-opacity: 0.92; stroke-width: 0.6"/>
    <path d="M 653.992891 677.943356 
C 659.555838 677.943356 664.89169 675.733174 668.825288 671.799576 
C 672.758885 667.865978 674.969067 662.530126 674.969067 656.967179 
C 674.969067 651.404232 672.758885 646.06838 668.825288 642.134782 
C 664.89169 638.201184 659.555838 635.991002 653.992891 635.991002 
C 648.429943 635.991002 643.094091 638.201184 639.160494 642.134782 
C 635.226896 646.06838 633.016714 651.404232 633.016714 656.967179 
C 633.016714 662.530126 635.226896 667.865978 639.160494 671.799576 
C 643.094091 675.733174 648.429943 677.943356 653.992891 677.943356 
z
" clip-path="url(#p4e2d2a1712)" style="fill: #4e79a7; fill-opacity: 0.92; stroke: #2f4b6b; stroke-opacity: 0.92; stroke-width: 0.6"/>
    <path d="M 788.506704 901.44328 
C 791.64463 901.44328 794.654456 900.196569 796.873304 897.977721 
C 799.092153 895.758873 800.338864 892.749046 800.338864 889.611121 
C 800.338864 886.473195 799.092153 883.463369 796.873304 881.244521 
C 794.654456 879.025672 791.64463 877.778961 788.506704 877.778961 
C 785.368779 877.778961 782.358952 879.025672 780.140104 881.244521 
C 777.921256 883.463369 776.674545 886.473195 776.674545 889.611121 
C 776.674545 892.749046 777.921256 895.758873 780.140104 897.977721 
C 782.358952 900.196569 785.368779 901.44328 788.506704 901.44328 
z
" clip-path="url(#p4e2d2a1712)" style="fill: #4e79a7; fill-opacity: 0.92; stroke: #2f4b6b; stroke-opacity: 0.92; stroke-width: 0.6"/>
   </g>
   <g id="text_1">
    <g clip-path="url(#p4e2d2a1712)">
     <!-- orch/__init__ -->
     <g transform="translate(645.64668 533.663792) scale(0.08 -0.08)">
      <defs>
       <path id="MicrosoftYaHei-6f" d="M 316 1691 
Q 316 2547 794 3042 
Q 1272 3538 2091 3538 
Q 2869 3538 3311 3061 
Q 3753 2584 3753 1744 
Q 3753 925 3281 422 
Q 2809 -81 2016 -81 
Q 1241 -81 778 406 
Q 316 894 316 1691 
z
M 941 1709 
Q 941 1113 1242 769 
Q 1544 425 2053 425 
Q 2578 425 2853 761 
Q 3128 1097 3128 1725 
Q 3128 2356 2853 2693 
Q 2578 3031 2053 3031 
Q 1538 3031 1239 2678 
Q 941 2325 941 1709 
z
" transform="scale(0.015625)"/>
       <path id="MicrosoftYaHei-72" d="M 2400 2850 
Q 2247 2959 1978 2959 
Q 1622 2959 1390 2626 
Q 1159 2294 1159 1750 
L 1159 0 
L 547 0 
L 547 3456 
L 1159 3456 
L 1159 2753 
L 1172 2753 
Q 1434 3516 2078 3516 
Q 2288 3516 2400 3469 
L 2400 2850 
z
" transform="scale(0.015625)"/>
       <path id="MicrosoftYaHei-63" d="M 2934 156 
Q 2538 -81 1978 -81 
Q 1228 -81 772 400 
Q 316 881 316 1647 
Q 316 2497 808 3017 
Q 1300 3538 2125 3538 
Q 2600 3538 2938 3369 
L 2938 2763 
Q 2572 3031 2125 3031 
Q 1600 3031 1270 2667 
Q 941 2303 941 1697 
Q 941 1100 1252 762 
Q 1563 425 2091 425 
Q 2538 425 2934 719 
L 2934 156 
z
" transform="scale(0.015625)"/>
       <path id="MicrosoftYaHei-68" d="M 3466 0 
L 2856 0 
L 2856 1988 
Q 2856 3031 2081 3031 
Q 1684 3031 1421 2726 
Q 1159 2422 1159 1959 
L 1159 0 
L 547 0 
L 547 5116 
L 1159 5116 
L 1159 2888 
L 1172 2888 
Q 1569 3538 2300 3538 
Q 3466 3538 3466 2128 
L 3466 0 
z
" transform="scale(0.015625)"/>
       <path id="MicrosoftYaHei-2f" d="M 2791 4841 
L 469 -803 
L -103 -803 
L 2219 4841 
L 2791 4841 
z
" transform="scale(0.015625)"/>
       <path id="MicrosoftYaHei-5f" d="M 2869 -1634 
L 0 -1634 
L 0 -1231 
L 2869 -1231 
L 2869 -1634 
z
" transform="scale(0.015625)"/>
       <path id="MicrosoftYaHei-69" d="M 472 4675 
Q 472 4838 583 4948 
Q 694 5059 856 5059 
Q 1022 5059 1136 4950 
Q 1250 4841 1250 4675 
Q 1250 4513 1136 4405 
Q 1022 4297 856 4297 
Q 691 4297 581 4405 
Q 472 4513 472 4675 
z
M 544 0 
L 544 3456 
L 1156 3456 
L 1156 0 
L 544 0 
z
" transform="scale(0.015625)"/>
       <path id="MicrosoftYaHei-6e" d="M 3469 0 
L 2859 0 
L 2859 1966 
Q 2859 3031 2081 3031 
Q 1678 3031 1418 2731 
Q 1159 2431 1159 1972 
L 1159 0 
L 547 0 
L 547 3456 
L 1159 3456 
L 1159 2884 
L 1172 2884 
Q 1563 3538 2306 3538 
Q 2875 3538 3172 3173 
Q 3469 2809 3469 2113 
L 3469 0 
z
" transform="scale(0.015625)"/>
       <path id="MicrosoftYaHei-74" d="M 2206 34 
Q 2006 -75 1666 -75 
Q 738 -75 738 953 
L 738 2950 
L 144 2950 
L 144 3456 
L 738 3456 
L 738 4288 
L 1347 4481 
L 1347 3456 
L 2206 3456 
L 2206 2950 
L 1347 2950 
L 1347 1063 
Q 1347 722 1462 575 
Q 1578 428 1847 428 
Q 2053 428 2206 544 
L 2206 34 
z
" transform="scale(0.015625)"/>
      </defs>
      <use xlink:href="#MicrosoftYaHei-6f"/>
      <use xlink:href="#MicrosoftYaHei-72" transform="translate(63.574219 0)"/>
      <use xlink:href="#MicrosoftYaHei-63" transform="translate(100.382812 0)"/>
      <use xlink:href="#MicrosoftYaHei-68" transform="translate(150.529297 0)"/>
      <use xlink:href="#MicrosoftYaHei-2f" transform="translate(212.101562 0)"/>
      <use xlink:href="#MicrosoftYaHei-5f" transform="translate(254.826172 0)"/>
      <use xlink:href="#MicrosoftYaHei-5f" transform="translate(299.650391 0)"/>
      <use xlink:href="#MicrosoftYaHei-69" transform="translate(344.474609 0)"/>
      <use xlink:href="#MicrosoftYaHei-6e" transform="translate(371.085938 0)"/>
      <use xlink:href="#MicrosoftYaHei-69" transform="translate(432.707031 0)"/>
      <use xlink:href="#MicrosoftYaHei-74" transform="translate(459.318359 0)"/>
      <use xlink:href="#MicrosoftYaHei-5f" transform="translate(496.574219 0)"/>
      <use xlink:href="#MicrosoftYaHei-5f" transform="translate(541.398438 0)"/>
     </g>
    </g>
   </g>
   <g id="text_2">
    <g clip-path="url(#p4e2d2a1712)">
     <!-- orch/adapters/__init__ -->
     <g transform="translate(795.810493 414.278102) scale(0.08 -0.08)">
      <defs>
       <path id="MicrosoftYaHei-61" d="M 628 3216 
Q 1144 3538 1819 3538 
Q 3069 3538 3069 2225 
L 3069 0 
L 2463 0 
L 2463 534 
L 2447 534 
Q 2088 -81 1388 -81 
Q 884 -81 587 191 
Q 291 463 291 925 
Q 291 1894 1438 2053 
L 2463 2197 
Q 2463 3044 1763 3044 
Q 1141 3044 628 2625 
L 628 3216 
z
M 1653 1625 
Q 1228 1569 1067 1412 
Q 906 1256 906 975 
Q 906 728 1081 572 
Q 1256 416 1544 416 
Q 1944 416 2203 697 
Q 2463 978 2463 1403 
L 2463 1734 
L 1653 1625 
z
" transform="scale(0.015625)"/>
       <path id="MicrosoftYaHei-64" d="M 3547 0 
L 2934 0 
L 2934 575 
L 2922 575 
Q 2544 -81 1747 -81 
Q 1091 -81 703 386 
Q 316 853 316 1647 
Q 316 2503 753 3020 
Q 1191 3538 1897 3538 
Q 2603 3538 2922 2988 
L 2934 2988 
L 2934 5116 
L 3547 5116 
L 3547 0 
z
M 2938 2056 
Q 2938 2472 2664 2751 
Q 2391 3031 1991 3031 
Q 1503 3031 1222 2667 
Q 941 2303 941 1675 
Q 941 1097 1211 761 
Q 1481 425 1931 425 
Q 2375 425 2656 754 
Q 2938 1084 2938 1575 
L 2938 2056 
z
" transform="scale(0.015625)"/>
       <path id="MicrosoftYaHei-70" d="M 1159 488 
L 1159 -1591 
L 547 -1591 
L 547 3456 
L 1159 3456 
L 1159 2859 
L 1172 2859 
Q 1578 3538 2359 3538 
Q 3022 3538 3398 3073 
Q 3775 2609 3775 1828 
Q 3775 966 3348 442 
Q 2922 -81 2200 -81 
Q 1534 -81 1172 488 
L 1159 488 
z
M 1156 1425 
Q 1156 1003 1428 714 
Q 1700 425 2109 425 
Q 2597 425 2872 800 
Q 3147 1175 3147 1838 
Q 3147 2397 2890 2714 
Q 2634 3031 2191 3031 
Q 1738 3031 1447 2709 
Q 1156 2388 1156 1884 
L 1156 1425 
z
" transform="scale(0.015625)"/>
       <path id="MicrosoftYaHei-65" d="M 3363 1572 
L 944 1572 
Q 959 1019 1246 717 
Q 1534 416 2050 416 
Q 2631 416 3116 788 
L 3116 241 
Q 2659 -81 1906 -81 
Q 1156 -81 736 394 
Q 316 869 316 1713 
Q 316 2506 777 3022 
Q 1238 3538 1922 3538 
Q 2600 3538 2981 3102 
Q 3363 2666 3363 1881 
L 3363 1572 
z
M 2750 2063 
Q 2747 2531 2528 2787 
Q 2309 3044 1913 3044 
Q 1547 3044 1280 2772 
Q 1013 2500 944 2063 
L 2750 2063 
z
" transform="scale(0.015625)"/>
       <path id="MicrosoftYaHei-73" d="M 353 747 
Q 816 413 1350 413 
Q 2066 413 2066 881 
Q 2066 1081 1909 1211 
Q 1753 1341 1275 1519 
Q 700 1750 528 1976 
Q 356 2203 356 2525 
Q 356 2984 745 3261 
Q 1134 3538 1703 3538 
Q 2144 3538 2522 3384 
L 2522 2794 
Q 2134 3044 1644 3044 
Q 1350 3044 1165 2916 
Q 981 2788 981 2578 
Q 981 2372 1114 2256 
Q 1247 2141 1703 1959 
Q 2281 1744 2484 1512 
Q 2688 1281 2688 941 
Q 2688 466 2298 192 
Q 1909 -81 1291 -81 
Q 753 -81 353 122 
L 353 747 
z
" transform="scale(0.015625)"/>
      </defs>
      <use xlink:href="#MicrosoftYaHei-6f"/>
      <use xlink:href="#MicrosoftYaHei-72" transform="translate(63.574219 0)"/>
      <use xlink:href="#MicrosoftYaHei-63" transform="translate(100.382812 0)"/>
      <use xlink:href="#MicrosoftYaHei-68" transform="translate(150.529297 0)"/>
      <use xlink:href="#MicrosoftYaHei-2f" transform="translate(212.101562 0)"/>
      <use xlink:href="#MicrosoftYaHei-61" transform="translate(254.826172 0)"/>
      <use xlink:href="#MicrosoftYaHei-64" transform="translate(310.099609 0)"/>
      <use xlink:href="#MicrosoftYaHei-61" transform="translate(374.064453 0)"/>
      <use xlink:href="#MicrosoftYaHei-70" transform="translate(429.337891 0)"/>
      <use xlink:href="#MicrosoftYaHei-74" transform="translate(493.205078 0)"/>
      <use xlink:href="#MicrosoftYaHei-65" transform="translate(529.585938 0)"/>
      <use xlink:href="#MicrosoftYaHei-72" transform="translate(586.324219 0)"/>
      <use xlink:href="#MicrosoftYaHei-73" transform="translate(625.257812 0)"/>
      <use xlink:href="#MicrosoftYaHei-2f" transform="translate(671.546875 0)"/>
      <use xlink:href="#MicrosoftYaHei-5f" transform="translate(714.271484 0)"/>
      <use xlink:href="#MicrosoftYaHei-5f" transform="translate(759.095703 0)"/>
      <use xlink:href="#MicrosoftYaHei-69" transform="translate(803.919922 0)"/>
      <use xlink:href="#MicrosoftYaHei-6e" transform="translate(830.53125 0)"/>
      <use xlink:href="#MicrosoftYaHei-69" transform="translate(892.152344 0)"/>
      <use xlink:href="#MicrosoftYaHei-74" transform="translate(918.763672 0)"/>
      <use xlink:href="#MicrosoftYaHei-5f" transform="translate(956.019531 0)"/>
      <use xlink:href="#MicrosoftYaHei-5f" transform="translate(1000.84375 0)"/>
     </g>
    </g>
   </g>
   <g id="text_3">
    <g clip-path="url(#p4e2d2a1712)">
     <!-- orch/chaos/expected -->
     <g transform="translate(847.890811 633.357154) scale(0.08 -0.08)">
      <defs>
       <path id="MicrosoftYaHei-78" d="M 3163 3456 
L 2006 1716 
L 3147 0 
L 2434 0 
L 1775 1100 
Q 1722 1188 1625 1369 
L 1613 1369 
Q 1609 1350 1456 1100 
L 784 0 
L 81 0 
L 1256 1697 
L 134 3456 
L 847 3456 
L 1494 2300 
Q 1553 2194 1638 2025 
L 1650 2025 
L 2491 3456 
L 3163 3456 
z
" transform="scale(0.015625)"/>
      </defs>
      <use xlink:href="#MicrosoftYaHei-6f"/>
      <use xlink:href="#MicrosoftYaHei-72" transform="translate(63.574219 0)"/>
      <use xlink:href="#MicrosoftYaHei-63" transform="translate(100.382812 0)"/>
      <use xlink:href="#MicrosoftYaHei-68" transform="translate(150.529297 0)"/>
      <use xlink:href="#MicrosoftYaHei-2f" transform="translate(212.101562 0)"/>
      <use xlink:href="#MicrosoftYaHei-63" transform="translate(254.826172 0)"/>
      <use xlink:href="#MicrosoftYaHei-68" transform="translate(304.972656 0)"/>
      <use xlink:href="#MicrosoftYaHei-61" transform="translate(366.544922 0)"/>
      <use xlink:href="#MicrosoftYaHei-6f" transform="translate(421.818359 0)"/>
      <use xlink:href="#MicrosoftYaHei-73" transform="translate(485.392578 0)"/>
      <use xlink:href="#MicrosoftYaHei-2f" transform="translate(531.681641 0)"/>
      <use xlink:href="#MicrosoftYaHei-65" transform="translate(574.40625 0)"/>
      <use xlink:href="#MicrosoftYaHei-78" transform="translate(631.144531 0)"/>
      <use xlink:href="#MicrosoftYaHei-70" transform="translate(681.828125 0)"/>
      <use xlink:href="#MicrosoftYaHei-65" transform="translate(745.695312 0)"/>
      <use xlink:href="#MicrosoftYaHei-63" transform="translate(802.433594 0)"/>
      <use xlink:href="#MicrosoftYaHei-74" transform="translate(852.580078 0)"/>
      <use xlink:href="#MicrosoftYaHei-65" transform="translate(888.960938 0)"/>
      <use xlink:href="#MicrosoftYaHei-64" transform="translate(945.699219 0)"/>
     </g>
    </g>
   </g>
   <g id="text_4">
    <g clip-path="url(#p4e2d2a1712)">
     <!-- orch/chaos/__init__ -->
     <g transform="translate(665.951907 654.093914) scale(0.08 -0.08)">
      <use xlink:href="#MicrosoftYaHei-6f"/>
      <use xlink:href="#MicrosoftYaHei-72" transform="translate(63.574219 0)"/>
      <use xlink:href="#MicrosoftYaHei-63" transform="translate(100.382812 0)"/>
      <use xlink:href="#MicrosoftYaHei-68" transform="translate(150.529297 0)"/>
      <use xlink:href="#MicrosoftYaHei-2f" transform="translate(212.101562 0)"/>
      <use xlink:href="#MicrosoftYaHei-63" transform="translate(254.826172 0)"/>
      <use xlink:href="#MicrosoftYaHei-68" transform="translate(304.972656 0)"/>
      <use xlink:href="#MicrosoftYaHei-61" transform="translate(366.544922 0)"/>
      <use xlink:href="#MicrosoftYaHei-6f" transform="translate(421.818359 0)"/>
      <use xlink:href="#MicrosoftYaHei-73" transform="translate(485.392578 0)"/>
      <use xlink:href="#MicrosoftYaHei-2f" transform="translate(531.681641 0)"/>
      <use xlink:href="#MicrosoftYaHei-5f" transform="translate(574.40625 0)"/>
      <use xlink:href="#MicrosoftYaHei-5f" transform="translate(619.230469 0)"/>
      <use xlink:href="#MicrosoftYaHei-69" transform="translate(664.054688 0)"/>
      <use xlink:href="#MicrosoftYaHei-6e" transform="translate(690.666016 0)"/>
      <use xlink:href="#MicrosoftYaHei-69" transform="translate(752.287109 0)"/>
      <use xlink:href="#MicrosoftYaHei-74" transform="translate(778.898438 0)"/>
      <use xlink:href="#MicrosoftYaHei-5f" transform="translate(816.154297 0)"/>
      <use xlink:href="#MicrosoftYaHei-5f" transform="translate(860.978516 0)"/>
     </g>
    </g>
   </g>
   <g id="text_5">
    <g clip-path="url(#p4e2d2a1712)">
     <!-- orch/cli/main -->
     <g transform="translate(598.694859 392.857035) scale(0.08 -0.08)">
      <defs>
       <path id="MicrosoftYaHei-6c" d="M 544 0 
L 544 5116 
L 1156 5116 
L 1156 0 
L 544 0 
z
" transform="scale(0.015625)"/>
       <path id="MicrosoftYaHei-6d" d="M 5522 0 
L 4909 0 
L 4909 1984 
Q 4909 2547 4734 2789 
Q 4559 3031 4159 3031 
Q 3822 3031 3581 2715 
Q 3341 2400 3341 1969 
L 3341 0 
L 2728 0 
L 2728 2047 
Q 2728 3031 1969 3031 
Q 1619 3031 1389 2731 
Q 1159 2431 1159 1966 
L 1159 0 
L 547 0 
L 547 3456 
L 1159 3456 
L 1159 2909 
L 1172 2909 
Q 1541 3538 2250 3538 
Q 2597 3538 2862 3347 
Q 3128 3156 3231 2831 
Q 3616 3538 4381 3538 
Q 5522 3538 5522 2131 
L 5522 0 
z
" transform="scale(0.015625)"/>
      </defs>
      <use xlink:href="#MicrosoftYaHei-6f"/>
      <use xlink:href="#MicrosoftYaHei-72" transform="translate(63.574219 0)"/>
      <use xlink:href="#MicrosoftYaHei-63" transform="translate(100.382812 0)"/>
      <use xlink:href="#MicrosoftYaHei-68" transform="translate(150.529297 0)"/>
      <use xlink:href="#MicrosoftYaHei-2f" transform="translate(212.101562 0)"/>
      <use xlink:href="#MicrosoftYaHei-63" transform="translate(254.826172 0)"/>
      <use xlink:href="#MicrosoftYaHei-6c" transform="translate(304.972656 0)"/>
      <use xlink:href="#MicrosoftYaHei-69" transform="translate(331.583984 0)"/>
      <use xlink:href="#MicrosoftYaHei-2f" transform="translate(358.195312 0)"/>
      <use xlink:href="#MicrosoftYaHei-6d" transform="translate(400.919922 0)"/>
      <use xlink:href="#MicrosoftYaHei-61" transform="translate(494.621094 0)"/>
      <use xlink:href="#MicrosoftYaHei-69" transform="translate(549.894531 0)"/>
      <use xlink:href="#MicrosoftYaHei-6e" transform="translate(576.505859 0)"/>
     </g>
    </g>
   </g>
   <g id="text_6">
    <g clip-path="url(#p4e2d2a1712)">
     <!-- orch/cli/__init__ -->
     <g transform="translate(685.732095 109.506379) scale(0.08 -0.08)">
      <use xlink:href="#MicrosoftYaHei-6f"/>
      <use xlink:href="#MicrosoftYaHei-72" transform="translate(63.574219 0)"/>
      <use xlink:href="#MicrosoftYaHei-63" transform="translate(100.382812 0)"/>
      <use xlink:href="#MicrosoftYaHei-68" transform="translate(150.529297 0)"/>
      <use xlink:href="#MicrosoftYaHei-2f" transform="translate(212.101562 0)"/>
      <use xlink:href="#MicrosoftYaHei-63" transform="translate(254.826172 0)"/>
      <use xlink:href="#MicrosoftYaHei-6c" transform="translate(304.972656 0)"/>
      <use xlink:href="#MicrosoftYaHei-69" transform="translate(331.583984 0)"/>
      <use xlink:href="#MicrosoftYaHei-2f" transform="translate(358.195312 0)"/>
      <use xlink:href="#MicrosoftYaHei-5f" transform="translate(400.919922 0)"/>
      <use xlink:href="#MicrosoftYaHei-5f" transform="translate(445.744141 0)"/>
      <use xlink:href="#MicrosoftYaHei-69" transform="translate(490.568359 0)"/>
      <use xlink:href="#MicrosoftYaHei-6e" transform="translate(517.179688 0)"/>
      <use xlink:href="#MicrosoftYaHei-69" transform="translate(578.800781 0)"/>
      <use xlink:href="#MicrosoftYaHei-74" transform="translate(605.412109 0)"/>
      <use xlink:href="#MicrosoftYaHei-5f" transform="translate(642.667969 0)"/>
      <use xlink:href="#MicrosoftYaHei-5f" transform="translate(687.492188 0)"/>
     </g>
    </g>
   </g>
   <g id="text_7">
    <g clip-path="url(#p4e2d2a1712)">
     <!-- orch/protocol/rules -->
     <g transform="translate(53.681854 213.927533) scale(0.08 -0.08)">
      <defs>
       <path id="MicrosoftYaHei-75" d="M 3400 0 
L 2784 0 
L 2784 544 
L 2772 544 
Q 2425 -81 1706 -81 
Q 478 -81 478 1388 
L 478 3456 
L 1084 3456 
L 1084 1478 
Q 1084 425 1891 425 
Q 2291 425 2537 720 
Q 2784 1016 2784 1466 
L 2784 3456 
L 3400 3456 
L 3400 0 
z
" transform="scale(0.015625)"/>
      </defs>
      <use xlink:href="#MicrosoftYaHei-6f"/>
      <use xlink:href="#MicrosoftYaHei-72" transform="translate(63.574219 0)"/>
      <use xlink:href="#MicrosoftYaHei-63" transform="translate(100.382812 0)"/>
      <use xlink:href="#MicrosoftYaHei-68" transform="translate(150.529297 0)"/>
      <use xlink:href="#MicrosoftYaHei-2f" transform="translate(212.101562 0)"/>
      <use xlink:href="#MicrosoftYaHei-70" transform="translate(254.826172 0)"/>
      <use xlink:href="#MicrosoftYaHei-72" transform="translate(318.693359 0)"/>
      <use xlink:href="#MicrosoftYaHei-6f" transform="translate(355.501953 0)"/>
      <use xlink:href="#MicrosoftYaHei-74" transform="translate(419.076172 0)"/>
      <use xlink:href="#MicrosoftYaHei-6f" transform="translate(455.457031 0)"/>
      <use xlink:href="#MicrosoftYaHei-63" transform="translate(519.03125 0)"/>
      <use xlink:href="#MicrosoftYaHei-6f" transform="translate(569.177734 0)"/>
      <use xlink:href="#MicrosoftYaHei-6c" transform="translate(632.751953 0)"/>
      <use xlink:href="#MicrosoftYaHei-2f" transform="translate(659.363281 0)"/>
      <use xlink:href="#MicrosoftYaHei-72" transform="translate(702.087891 0)"/>
      <use xlink:href="#MicrosoftYaHei-75" transform="translate(740.271484 0)"/>
      <use xlink:href="#MicrosoftYaHei-6c" transform="translate(801.892578 0)"/>
      <use xlink:href="#MicrosoftYaHei-65" transform="translate(828.503906 0)"/>
      <use xlink:href="#MicrosoftYaHei-73" transform="translate(885.242188 0)"/>
     </g>
    </g>
   </g>
   <g id="text_8">
    <g clip-path="url(#p4e2d2a1712)">
     <!-- orch/protocol/schema -->
     <g transform="translate(48.289189 213.986445) scale(0.08 -0.08)">
      <use xlink:href="#MicrosoftYaHei-6f"/>
      <use xlink:href="#MicrosoftYaHei-72" transform="translate(63.574219 0)"/>
      <use xlink:href="#MicrosoftYaHei-63" transform="translate(100.382812 0)"/>
      <use xlink:href="#MicrosoftYaHei-68" transform="translate(150.529297 0)"/>
      <use xlink:href="#MicrosoftYaHei-2f" transform="translate(212.101562 0)"/>
      <use xlink:href="#MicrosoftYaHei-70" transform="translate(254.826172 0)"/>
      <use xlink:href="#MicrosoftYaHei-72" transform="translate(318.693359 0)"/>
      <use xlink:href="#MicrosoftYaHei-6f" transform="translate(355.501953 0)"/>
      <use xlink:href="#MicrosoftYaHei-74" transform="translate(419.076172 0)"/>
      <use xlink:href="#MicrosoftYaHei-6f" transform="translate(455.457031 0)"/>
      <use xlink:href="#MicrosoftYaHei-63" transform="translate(519.03125 0)"/>
      <use xlink:href="#MicrosoftYaHei-6f" transform="translate(569.177734 0)"/>
      <use xlink:href="#MicrosoftYaHei-6c" transform="translate(632.751953 0)"/>
      <use xlink:href="#MicrosoftYaHei-2f" transform="translate(659.363281 0)"/>
      <use xlink:href="#MicrosoftYaHei-73" transform="translate(702.087891 0)"/>
      <use xlink:href="#MicrosoftYaHei-63" transform="translate(748.376953 0)"/>
      <use xlink:href="#MicrosoftYaHei-68" transform="translate(798.523438 0)"/>
      <use xlink:href="#MicrosoftYaHei-65" transform="translate(860.095703 0)"/>
      <use xlink:href="#MicrosoftYaHei-6d" transform="translate(916.833984 0)"/>
      <use xlink:href="#MicrosoftYaHei-61" transform="translate(1010.535156 0)"/>
     </g>
    </g>
   </g>
   <g id="text_9">
    <g clip-path="url(#p4e2d2a1712)">
     <!-- orch/protocol/__init__ -->
     <g transform="translate(218.5388 354.175436) scale(0.08 -0.08)">
      <use xlink:href="#MicrosoftYaHei-6f"/>
      <use xlink:href="#MicrosoftYaHei-72" transform="translate(63.574219 0)"/>
      <use xlink:href="#MicrosoftYaHei-63" transform="translate(100.382812 0)"/>
      <use xlink:href="#MicrosoftYaHei-68" transform="translate(150.529297 0)"/>
      <use xlink:href="#MicrosoftYaHei-2f" transform="translate(212.101562 0)"/>
      <use xlink:href="#MicrosoftYaHei-70" transform="translate(254.826172 0)"/>
      <use xlink:href="#MicrosoftYaHei-72" transform="translate(318.693359 0)"/>
      <use xlink:href="#MicrosoftYaHei-6f" transform="translate(355.501953 0)"/>
      <use xlink:href="#MicrosoftYaHei-74" transform="translate(419.076172 0)"/>
      <use xlink:href="#MicrosoftYaHei-6f" transform="translate(455.457031 0)"/>
      <use xlink:href="#MicrosoftYaHei-63" transform="translate(519.03125 0)"/>
      <use xlink:href="#MicrosoftYaHei-6f" transform="translate(569.177734 0)"/>
      <use xlink:href="#MicrosoftYaHei-6c" transform="translate(632.751953 0)"/>
      <use xlink:href="#MicrosoftYaHei-2f" transform="translate(659.363281 0)"/>
      <use xlink:href="#MicrosoftYaHei-5f" transform="translate(702.087891 0)"/>
      <use xlink:href="#MicrosoftYaHei-5f" transform="translate(746.912109 0)"/>
      <use xlink:href="#MicrosoftYaHei-69" transform="translate(791.736328 0)"/>
      <use xlink:href="#MicrosoftYaHei-6e" transform="translate(818.347656 0)"/>
      <use xlink:href="#MicrosoftYaHei-69" transform="translate(879.96875 0)"/>
      <use xlink:href="#MicrosoftYaHei-74" transform="translate(906.580078 0)"/>
      <use xlink:href="#MicrosoftYaHei-5f" transform="translate(943.835938 0)"/>
      <use xlink:href="#MicrosoftYaHei-5f" transform="translate(988.660156 0)"/>
     </g>
    </g>
   </g>
   <g id="text_10">
    <g clip-path="url(#p4e2d2a1712)">
     <!-- orch/render/__init__ -->
     <g transform="translate(410.951071 432.180564) scale(0.08 -0.08)">
      <use xlink:href="#MicrosoftYaHei-6f"/>
      <use xlink:href="#MicrosoftYaHei-72" transform="translate(63.574219 0)"/>
      <use xlink:href="#MicrosoftYaHei-63" transform="translate(100.382812 0)"/>
      <use xlink:href="#MicrosoftYaHei-68" transform="translate(150.529297 0)"/>
      <use xlink:href="#MicrosoftYaHei-2f" transform="translate(212.101562 0)"/>
      <use xlink:href="#MicrosoftYaHei-72" transform="translate(254.826172 0)"/>
      <use xlink:href="#MicrosoftYaHei-65" transform="translate(291.634766 0)"/>
      <use xlink:href="#MicrosoftYaHei-6e" transform="translate(348.373047 0)"/>
      <use xlink:href="#MicrosoftYaHei-64" transform="translate(409.994141 0)"/>
      <use xlink:href="#MicrosoftYaHei-65" transform="translate(473.958984 0)"/>
      <use xlink:href="#MicrosoftYaHei-72" transform="translate(530.697266 0)"/>
      <use xlink:href="#MicrosoftYaHei-2f" transform="translate(568.880859 0)"/>
      <use xlink:href="#MicrosoftYaHei-5f" transform="translate(611.605469 0)"/>
      <use xlink:href="#MicrosoftYaHei-5f" transform="translate(656.429688 0)"/>
      <use xlink:href="#MicrosoftYaHei-69" transform="translate(701.253906 0)"/>
      <use xlink:href="#MicrosoftYaHei-6e" transform="translate(727.865234 0)"/>
      <use xlink:href="#MicrosoftYaHei-69" transform="translate(789.486328 0)"/>
      <use xlink:href="#MicrosoftYaHei-74" transform="translate(816.097656 0)"/>
      <use xlink:href="#MicrosoftYaHei-5f" transform="translate(853.353516 0)"/>
      <use xlink:href="#MicrosoftYaHei-5f" transform="translate(898.177734 0)"/>
     </g>
    </g>
   </g>
   <g id="text_11">
    <g clip-path="url(#p4e2d2a1712)">
     <!-- orch/scheduler/async_core -->
     <g transform="translate(235.981875 580.78336) scale(0.08 -0.08)">
      <defs>
       <path id="MicrosoftYaHei-79" d="M 3359 3456 
L 1791 -522 
Q 1353 -1628 556 -1628 
Q 328 -1628 166 -1578 
L 166 -1041 
Q 344 -1109 509 -1109 
Q 925 -1109 1131 -622 
L 1397 6 
L 41 3456 
L 719 3456 
L 1622 859 
L 1697 575 
L 1713 575 
Q 1731 672 1788 853 
L 2731 3456 
L 3359 3456 
z
" transform="scale(0.015625)"/>
      </defs>
      <use xlink:href="#MicrosoftYaHei-6f"/>
      <use xlink:href="#MicrosoftYaHei-72" transform="translate(63.574219 0)"/>
      <use xlink:href="#MicrosoftYaHei-63" transform="translate(100.382812 0)"/>
      <use xlink:href="#MicrosoftYaHei-68" transform="translate(150.529297 0)"/>
      <use xlink:href="#MicrosoftYaHei-2f" transform="translate(212.101562 0)"/>
      <use xlink:href="#MicrosoftYaHei-73" transform="translate(254.826172 0)"/>
      <use xlink:href="#MicrosoftYaHei-63" transform="translate(301.115234 0)"/>
      <use xlink:href="#MicrosoftYaHei-68" transform="translate(351.261719 0)"/>
      <use xlink:href="#MicrosoftYaHei-65" transform="translate(412.833984 0)"/>
      <use xlink:href="#MicrosoftYaHei-64" transform="translate(469.572266 0)"/>
      <use xlink:href="#MicrosoftYaHei-75" transform="translate(533.537109 0)"/>
      <use xlink:href="#MicrosoftYaHei-6c" transform="translate(595.158203 0)"/>
      <use xlink:href="#MicrosoftYaHei-65" transform="translate(621.769531 0)"/>
      <use xlink:href="#MicrosoftYaHei-72" transform="translate(678.507812 0)"/>
      <use xlink:href="#MicrosoftYaHei-2f" transform="translate(716.691406 0)"/>
      <use xlink:href="#MicrosoftYaHei-61" transform="translate(759.416016 0)"/>
      <use xlink:href="#MicrosoftYaHei-73" transform="translate(814.689453 0)"/>
      <use xlink:href="#MicrosoftYaHei-79" transform="translate(860.978516 0)"/>
      <use xlink:href="#MicrosoftYaHei-6e" transform="translate(913.908203 0)"/>
      <use xlink:href="#MicrosoftYaHei-63" transform="translate(975.529297 0)"/>
      <use xlink:href="#MicrosoftYaHei-5f" transform="translate(1025.675781 0)"/>
      <use xlink:href="#MicrosoftYaHei-63" transform="translate(1070.5 0)"/>
      <use xlink:href="#MicrosoftYaHei-6f" transform="translate(1120.646484 0)"/>
      <use xlink:href="#MicrosoftYaHei-72" transform="translate(1184.220703 0)"/>
      <use xlink:href="#MicrosoftYaHei-65" transform="translate(1221.029297 0)"/>
     </g>
    </g>
   </g>
   <g id="text_12">
    <g clip-path="url(#p4e2d2a1712)">
     <!-- orch/scheduler/core -->
     <g transform="translate(296.860113 653.044415) scale(0.08 -0.08)">
      <use xlink:href="#MicrosoftYaHei-6f"/>
      <use xlink:href="#MicrosoftYaHei-72" transform="translate(63.574219 0)"/>
      <use xlink:href="#MicrosoftYaHei-63" transform="translate(100.382812 0)"/>
      <use xlink:href="#MicrosoftYaHei-68" transform="translate(150.529297 0)"/>
      <use xlink:href="#MicrosoftYaHei-2f" transform="translate(212.101562 0)"/>
      <use xlink:href="#MicrosoftYaHei-73" transform="translate(254.826172 0)"/>
      <use xlink:href="#MicrosoftYaHei-63" transform="translate(301.115234 0)"/>
      <use xlink:href="#MicrosoftYaHei-68" transform="translate(351.261719 0)"/>
      <use xlink:href="#MicrosoftYaHei-65" transform="translate(412.833984 0)"/>
      <use xlink:href="#MicrosoftYaHei-64" transform="translate(469.572266 0)"/>
      <use xlink:href="#MicrosoftYaHei-75" transform="translate(533.537109 0)"/>
      <use xlink:href="#MicrosoftYaHei-6c" transform="translate(595.158203 0)"/>
      <use xlink:href="#MicrosoftYaHei-65" transform="translate(621.769531 0)"/>
      <use xlink:href="#MicrosoftYaHei-72" transform="translate(678.507812 0)"/>
      <use xlink:href="#MicrosoftYaHei-2f" transform="translate(716.691406 0)"/>
      <use xlink:href="#MicrosoftYaHei-63" transform="translate(759.416016 0)"/>
      <use xlink:href="#MicrosoftYaHei-6f" transform="translate(809.5625 0)"/>
      <use xlink:href="#MicrosoftYaHei-72" transform="translate(873.136719 0)"/>
      <use xlink:href="#MicrosoftYaHei-65" transform="translate(909.945312 0)"/>
     </g>
    </g>
   </g>
   <g id="text_13">
    <g clip-path="url(#p4e2d2a1712)">
     <!-- orch/scheduler/permissions -->
     <g transform="translate(364.654828 401.450247) scale(0.08 -0.08)">
      <use xlink:href="#MicrosoftYaHei-6f"/>
      <use xlink:href="#MicrosoftYaHei-72" transform="translate(63.574219 0)"/>
      <use xlink:href="#MicrosoftYaHei-63" transform="translate(100.382812 0)"/>
      <use xlink:href="#MicrosoftYaHei-68" transform="translate(150.529297 0)"/>
      <use xlink:href="#MicrosoftYaHei-2f" transform="translate(212.101562 0)"/>
      <use xlink:href="#MicrosoftYaHei-73" transform="translate(254.826172 0)"/>
      <use xlink:href="#MicrosoftYaHei-63" transform="translate(301.115234 0)"/>
      <use xlink:href="#MicrosoftYaHei-68" transform="translate(351.261719 0)"/>
      <use xlink:href="#MicrosoftYaHei-65" transform="translate(412.833984 0)"/>
      <use xlink:href="#MicrosoftYaHei-64" transform="translate(469.572266 0)"/>
      <use xlink:href="#MicrosoftYaHei-75" transform="translate(533.537109 0)"/>
      <use xlink:href="#MicrosoftYaHei-6c" transform="translate(595.158203 0)"/>
      <use xlink:href="#MicrosoftYaHei-65" transform="translate(621.769531 0)"/>
      <use xlink:href="#MicrosoftYaHei-72" transform="translate(678.507812 0)"/>
      <use xlink:href="#MicrosoftYaHei-2f" transform="translate(716.691406 0)"/>
      <use xlink:href="#MicrosoftYaHei-70" transform="translate(759.416016 0)"/>
      <use xlink:href="#MicrosoftYaHei-65" transform="translate(823.283203 0)"/>
      <use xlink:href="#MicrosoftYaHei-72" transform="translate(880.021484 0)"/>
      <use xlink:href="#MicrosoftYaHei-6d" transform="translate(917.955078 0)"/>
      <use xlink:href="#MicrosoftYaHei-69" transform="translate(1011.65625 0)"/>
      <use xlink:href="#MicrosoftYaHei-73" transform="translate(1038.267578 0)"/>
      <use xlink:href="#MicrosoftYaHei-73" transform="translate(1084.556641 0)"/>
      <use xlink:href="#MicrosoftYaHei-69" transform="translate(1130.845703 0)"/>
      <use xlink:href="#MicrosoftYaHei-6f" transform="translate(1157.457031 0)"/>
      <use xlink:href="#MicrosoftYaHei-6e" transform="translate(1221.03125 0)"/>
      <use xlink:href="#MicrosoftYaHei-73" transform="translate(1282.652344 0)"/>
     </g>
    </g>
   </g>
   <g id="text_14">
    <g clip-path="url(#p4e2d2a1712)">
     <!-- orch/scheduler/recover -->
     <g transform="translate(265.859972 624.590561) scale(0.08 -0.08)">
      <defs>
       <path id="MicrosoftYaHei-76" d="M 3331 3456 
L 1963 0 
L 1344 0 
L 44 3456 
L 713 3456 
L 1556 988 
Q 1659 691 1678 491 
L 1694 491 
Q 1725 753 1803 975 
L 2688 3456 
L 3331 3456 
z
" transform="scale(0.015625)"/>
      </defs>
      <use xlink:href="#MicrosoftYaHei-6f"/>
      <use xlink:href="#MicrosoftYaHei-72" transform="translate(63.574219 0)"/>
      <use xlink:href="#MicrosoftYaHei-63" transform="translate(100.382812 0)"/>
      <use xlink:href="#MicrosoftYaHei-68" transform="translate(150.529297 0)"/>
      <use xlink:href="#MicrosoftYaHei-2f" transform="translate(212.101562 0)"/>
      <use xlink:href="#MicrosoftYaHei-73" transform="translate(254.826172 0)"/>
      <use xlink:href="#MicrosoftYaHei-63" transform="translate(301.115234 0)"/>
      <use xlink:href="#MicrosoftYaHei-68" transform="translate(351.261719 0)"/>
      <use xlink:href="#MicrosoftYaHei-65" transform="translate(412.833984 0)"/>
      <use xlink:href="#MicrosoftYaHei-64" transform="translate(469.572266 0)"/>
      <use xlink:href="#MicrosoftYaHei-75" transform="translate(533.537109 0)"/>
      <use xlink:href="#MicrosoftYaHei-6c" transform="translate(595.158203 0)"/>
      <use xlink:href="#MicrosoftYaHei-65" transform="translate(621.769531 0)"/>
      <use xlink:href="#MicrosoftYaHei-72" transform="translate(678.507812 0)"/>
      <use xlink:href="#MicrosoftYaHei-2f" transform="translate(716.691406 0)"/>
      <use xlink:href="#MicrosoftYaHei-72" transform="translate(759.416016 0)"/>
      <use xlink:href="#MicrosoftYaHei-65" transform="translate(796.224609 0)"/>
      <use xlink:href="#MicrosoftYaHei-63" transform="translate(852.962891 0)"/>
      <use xlink:href="#MicrosoftYaHei-6f" transform="translate(903.109375 0)"/>
      <use xlink:href="#MicrosoftYaHei-76" transform="translate(966.683594 0)"/>
      <use xlink:href="#MicrosoftYaHei-65" transform="translate(1018.548828 0)"/>
      <use xlink:href="#MicrosoftYaHei-72" transform="translate(1075.287109 0)"/>
     </g>
    </g>
   </g>
   <g id="text_15">
    <g clip-path="url(#p4e2d2a1712)">
     <!-- orch/scheduler/systemexec -->
     <g transform="translate(351.339135 379.456822) scale(0.08 -0.08)">
      <use xlink:href="#MicrosoftYaHei-6f"/>
      <use xlink:href="#MicrosoftYaHei-72" transform="translate(63.574219 0)"/>
      <use xlink:href="#MicrosoftYaHei-63" transform="translate(100.382812 0)"/>
      <use xlink:href="#MicrosoftYaHei-68" transform="translate(150.529297 0)"/>
      <use xlink:href="#MicrosoftYaHei-2f" transform="translate(212.101562 0)"/>
      <use xlink:href="#MicrosoftYaHei-73" transform="translate(254.826172 0)"/>
      <use xlink:href="#MicrosoftYaHei-63" transform="translate(301.115234 0)"/>
      <use xlink:href="#MicrosoftYaHei-68" transform="translate(351.261719 0)"/>
      <use xlink:href="#MicrosoftYaHei-65" transform="translate(412.833984 0)"/>
      <use xlink:href="#MicrosoftYaHei-64" transform="translate(469.572266 0)"/>
      <use xlink:href="#MicrosoftYaHei-75" transform="translate(533.537109 0)"/>
      <use xlink:href="#MicrosoftYaHei-6c" transform="translate(595.158203 0)"/>
      <use xlink:href="#MicrosoftYaHei-65" transform="translate(621.769531 0)"/>
      <use xlink:href="#MicrosoftYaHei-72" transform="translate(678.507812 0)"/>
      <use xlink:href="#MicrosoftYaHei-2f" transform="translate(716.691406 0)"/>
      <use xlink:href="#MicrosoftYaHei-73" transform="translate(759.416016 0)"/>
      <use xlink:href="#MicrosoftYaHei-79" transform="translate(805.705078 0)"/>
      <use xlink:href="#MicrosoftYaHei-73" transform="translate(858.634766 0)"/>
      <use xlink:href="#MicrosoftYaHei-74" transform="translate(904.923828 0)"/>
      <use xlink:href="#MicrosoftYaHei-65" transform="translate(941.304688 0)"/>
      <use xlink:href="#MicrosoftYaHei-6d" transform="translate(998.042969 0)"/>
      <use xlink:href="#MicrosoftYaHei-65" transform="translate(1091.744141 0)"/>
      <use xlink:href="#MicrosoftYaHei-78" transform="translate(1148.482422 0)"/>
      <use xlink:href="#MicrosoftYaHei-65" transform="translate(1198.291016 0)"/>
      <use xlink:href="#MicrosoftYaHei-63" transform="translate(1255.029297 0)"/>
     </g>
    </g>
   </g>
   <g id="text_16">
    <g clip-path="url(#p4e2d2a1712)">
     <!-- orch/scheduler/watchdog -->
     <g transform="translate(288.419546 865.250363) scale(0.08 -0.08)">
      <defs>
       <path id="MicrosoftYaHei-77" d="M 4975 3456 
L 3944 0 
L 3306 0 
L 2619 2425 
Q 2575 2581 2563 2756 
L 2550 2756 
Q 2541 2625 2478 2431 
L 1734 0 
L 1116 0 
L 78 3456 
L 716 3456 
L 1406 894 
Q 1438 778 1453 578 
L 1478 578 
Q 1491 750 1538 903 
L 2281 3456 
L 2847 3456 
L 3572 891 
Q 3603 778 3622 572 
L 3650 572 
Q 3656 709 3706 891 
L 4381 3456 
L 4975 3456 
z
" transform="scale(0.015625)"/>
       <path id="MicrosoftYaHei-67" d="M 3547 291 
Q 3547 -1628 1684 -1628 
Q 1041 -1628 566 -1388 
L 566 -797 
Q 1144 -1119 1675 -1119 
Q 2934 -1119 2934 206 
L 2934 572 
L 2922 572 
Q 2528 -81 1747 -81 
Q 1097 -81 706 384 
Q 316 850 316 1619 
Q 316 2503 747 3020 
Q 1178 3538 1897 3538 
Q 2588 3538 2922 2988 
L 2934 2988 
L 2934 3456 
L 3547 3456 
L 3547 291 
z
M 2934 2056 
Q 2938 2456 2666 2743 
Q 2394 3031 1997 3031 
Q 1497 3031 1219 2664 
Q 941 2297 941 1656 
Q 941 1106 1209 765 
Q 1478 425 1922 425 
Q 2369 425 2653 750 
Q 2938 1075 2934 1575 
L 2934 2056 
z
" transform="scale(0.015625)"/>
      </defs>
      <use xlink:href="#MicrosoftYaHei-6f"/>
      <use xlink:href="#MicrosoftYaHei-72" transform="translate(63.574219 0)"/>
      <use xlink:href="#MicrosoftYaHei-63" transform="translate(100.382812 0)"/>
      <use xlink:href="#MicrosoftYaHei-68" transform="translate(150.529297 0)"/>
      <use xlink:href="#MicrosoftYaHei-2f" transform="translate(212.101562 0)"/>
      <use xlink:href="#MicrosoftYaHei-73" transform="translate(254.826172 0)"/>
      <use xlink:href="#MicrosoftYaHei-63" transform="translate(301.115234 0)"/>
      <use xlink:href="#MicrosoftYaHei-68" transform="translate(351.261719 0)"/>
      <use xlink:href="#MicrosoftYaHei-65" transform="translate(412.833984 0)"/>
      <use xlink:href="#MicrosoftYaHei-64" transform="translate(469.572266 0)"/>
      <use xlink:href="#MicrosoftYaHei-75" transform="translate(533.537109 0)"/>
      <use xlink:href="#MicrosoftYaHei-6c" transform="translate(595.158203 0)"/>
      <use xlink:href="#MicrosoftYaHei-65" transform="translate(621.769531 0)"/>
      <use xlink:href="#MicrosoftYaHei-72" transform="translate(678.507812 0)"/>
      <use xlink:href="#MicrosoftYaHei-2f" transform="translate(716.691406 0)"/>
      <use xlink:href="#MicrosoftYaHei-77" transform="translate(759.416016 0)"/>
      <use xlink:href="#MicrosoftYaHei-61" transform="translate(838.371094 0)"/>
      <use xlink:href="#MicrosoftYaHei-74" transform="translate(893.644531 0)"/>
      <use xlink:href="#MicrosoftYaHei-63" transform="translate(929.525391 0)"/>
      <use xlink:href="#MicrosoftYaHei-68" transform="translate(979.671875 0)"/>
      <use xlink:href="#MicrosoftYaHei-64" transform="translate(1041.244141 0)"/>
      <use xlink:href="#MicrosoftYaHei-6f" transform="translate(1105.208984 0)"/>
      <use xlink:href="#MicrosoftYaHei-67" transform="translate(1168.783203 0)"/>
     </g>
    </g>
   </g>
   <g id="text_17">
    <g clip-path="url(#p4e2d2a1712)">
     <!-- orch/scheduler/_dispatch -->
     <g transform="translate(104.301036 771.893842) scale(0.08 -0.08)">
      <use xlink:href="#MicrosoftYaHei-6f"/>
      <use xlink:href="#MicrosoftYaHei-72" transform="translate(63.574219 0)"/>
      <use xlink:href="#MicrosoftYaHei-63" transform="translate(100.382812 0)"/>
      <use xlink:href="#MicrosoftYaHei-68" transform="translate(150.529297 0)"/>
      <use xlink:href="#MicrosoftYaHei-2f" transform="translate(212.101562 0)"/>
      <use xlink:href="#MicrosoftYaHei-73" transform="translate(254.826172 0)"/>
      <use xlink:href="#MicrosoftYaHei-63" transform="translate(301.115234 0)"/>
      <use xlink:href="#MicrosoftYaHei-68" transform="translate(351.261719 0)"/>
      <use xlink:href="#MicrosoftYaHei-65" transform="translate(412.833984 0)"/>
      <use xlink:href="#MicrosoftYaHei-64" transform="translate(469.572266 0)"/>
      <use xlink:href="#MicrosoftYaHei-75" transform="translate(533.537109 0)"/>
      <use xlink:href="#MicrosoftYaHei-6c" transform="translate(595.158203 0)"/>
      <use xlink:href="#MicrosoftYaHei-65" transform="translate(621.769531 0)"/>
      <use xlink:href="#MicrosoftYaHei-72" transform="translate(678.507812 0)"/>
      <use xlink:href="#MicrosoftYaHei-2f" transform="translate(716.691406 0)"/>
      <use xlink:href="#MicrosoftYaHei-5f" transform="translate(759.416016 0)"/>
      <use xlink:href="#MicrosoftYaHei-64" transform="translate(804.240234 0)"/>
      <use xlink:href="#MicrosoftYaHei-69" transform="translate(868.205078 0)"/>
      <use xlink:href="#MicrosoftYaHei-73" transform="translate(894.816406 0)"/>
      <use xlink:href="#MicrosoftYaHei-70" transform="translate(941.105469 0)"/>
      <use xlink:href="#MicrosoftYaHei-61" transform="translate(1003.597656 0)"/>
      <use xlink:href="#MicrosoftYaHei-74" transform="translate(1058.871094 0)"/>
      <use xlink:href="#MicrosoftYaHei-63" transform="translate(1094.751953 0)"/>
      <use xlink:href="#MicrosoftYaHei-68" transform="translate(1144.898438 0)"/>
     </g>
    </g>
   </g>
   <g id="text_18">
    <g clip-path="url(#p4e2d2a1712)">
     <!-- orch/scheduler/__init__ -->
     <g transform="translate(453.049252 687.123258) scale(0.08 -0.08)">
      <use xlink:href="#MicrosoftYaHei-6f"/>
      <use xlink:href="#MicrosoftYaHei-72" transform="translate(63.574219 0)"/>
      <use xlink:href="#MicrosoftYaHei-63" transform="translate(100.382812 0)"/>
      <use xlink:href="#MicrosoftYaHei-68" transform="translate(150.529297 0)"/>
      <use xlink:href="#MicrosoftYaHei-2f" transform="translate(212.101562 0)"/>
      <use xlink:href="#MicrosoftYaHei-73" transform="translate(254.826172 0)"/>
      <use xlink:href="#MicrosoftYaHei-63" transform="translate(301.115234 0)"/>
      <use xlink:href="#MicrosoftYaHei-68" transform="translate(351.261719 0)"/>
      <use xlink:href="#MicrosoftYaHei-65" transform="translate(412.833984 0)"/>
      <use xlink:href="#MicrosoftYaHei-64" transform="translate(469.572266 0)"/>
      <use xlink:href="#MicrosoftYaHei-75" transform="translate(533.537109 0)"/>
      <use xlink:href="#MicrosoftYaHei-6c" transform="translate(595.158203 0)"/>
      <use xlink:href="#MicrosoftYaHei-65" transform="translate(621.769531 0)"/>
      <use xlink:href="#MicrosoftYaHei-72" transform="translate(678.507812 0)"/>
      <use xlink:href="#MicrosoftYaHei-2f" transform="translate(716.691406 0)"/>
      <use xlink:href="#MicrosoftYaHei-5f" transform="translate(759.416016 0)"/>
      <use xlink:href="#MicrosoftYaHei-5f" transform="translate(804.240234 0)"/>
      <use xlink:href="#MicrosoftYaHei-69" transform="translate(849.064453 0)"/>
      <use xlink:href="#MicrosoftYaHei-6e" transform="translate(875.675781 0)"/>
      <use xlink:href="#MicrosoftYaHei-69" transform="translate(937.296875 0)"/>
      <use xlink:href="#MicrosoftYaHei-74" transform="translate(963.908203 0)"/>
      <use xlink:href="#MicrosoftYaHei-5f" transform="translate(1001.164062 0)"/>
      <use xlink:href="#MicrosoftYaHei-5f" transform="translate(1045.988281 0)"/>
     </g>
    </g>
   </g>
   <g id="text_19">
    <g clip-path="url(#p4e2d2a1712)">
     <!-- orch/store/__init__ -->
     <g transform="translate(463.084755 533.981164) scale(0.08 -0.08)">
      <use xlink:href="#MicrosoftYaHei-6f"/>
      <use xlink:href="#MicrosoftYaHei-72" transform="translate(63.574219 0)"/>
      <use xlink:href="#MicrosoftYaHei-63" transform="translate(100.382812 0)"/>
      <use xlink:href="#MicrosoftYaHei-68" transform="translate(150.529297 0)"/>
      <use xlink:href="#MicrosoftYaHei-2f" transform="translate(212.101562 0)"/>
      <use xlink:href="#MicrosoftYaHei-73" transform="translate(254.826172 0)"/>
      <use xlink:href="#MicrosoftYaHei-74" transform="translate(301.115234 0)"/>
      <use xlink:href="#MicrosoftYaHei-6f" transform="translate(337.496094 0)"/>
      <use xlink:href="#MicrosoftYaHei-72" transform="translate(401.070312 0)"/>
      <use xlink:href="#MicrosoftYaHei-65" transform="translate(437.878906 0)"/>
      <use xlink:href="#MicrosoftYaHei-2f" transform="translate(494.617188 0)"/>
      <use xlink:href="#MicrosoftYaHei-5f" transform="translate(537.341797 0)"/>
      <use xlink:href="#MicrosoftYaHei-5f" transform="translate(582.166016 0)"/>
      <use xlink:href="#MicrosoftYaHei-69" transform="translate(626.990234 0)"/>
      <use xlink:href="#MicrosoftYaHei-6e" transform="translate(653.601562 0)"/>
      <use xlink:href="#MicrosoftYaHei-69" transform="translate(715.222656 0)"/>
      <use xlink:href="#MicrosoftYaHei-74" transform="translate(741.833984 0)"/>
      <use xlink:href="#MicrosoftYaHei-5f" transform="translate(779.089844 0)"/>
      <use xlink:href="#MicrosoftYaHei-5f" transform="translate(823.914062 0)"/>
     </g>
    </g>
   </g>
   <g id="text_20">
    <g clip-path="url(#p4e2d2a1712)">
     <!-- orch/verify/__init__ -->
     <g transform="translate(568.99376 740.743965) scale(0.08 -0.08)">
      <defs>
       <path id="MicrosoftYaHei-66" d="M 2319 4594 
Q 2147 4684 1947 4684 
Q 1372 4684 1372 3972 
L 1372 3456 
L 2181 3456 
L 2181 2950 
L 1372 2950 
L 1372 0 
L 766 0 
L 766 2950 
L 175 2950 
L 175 3456 
L 766 3456 
L 766 4000 
Q 766 4556 1086 4873 
Q 1406 5191 1900 5191 
Q 2163 5191 2319 5131 
L 2319 4594 
z
" transform="scale(0.015625)"/>
      </defs>
      <use xlink:href="#MicrosoftYaHei-6f"/>
      <use xlink:href="#MicrosoftYaHei-72" transform="translate(63.574219 0)"/>
      <use xlink:href="#MicrosoftYaHei-63" transform="translate(100.382812 0)"/>
      <use xlink:href="#MicrosoftYaHei-68" transform="translate(150.529297 0)"/>
      <use xlink:href="#MicrosoftYaHei-2f" transform="translate(212.101562 0)"/>
      <use xlink:href="#MicrosoftYaHei-76" transform="translate(254.826172 0)"/>
      <use xlink:href="#MicrosoftYaHei-65" transform="translate(306.691406 0)"/>
      <use xlink:href="#MicrosoftYaHei-72" transform="translate(363.429688 0)"/>
      <use xlink:href="#MicrosoftYaHei-69" transform="translate(401.613281 0)"/>
      <use xlink:href="#MicrosoftYaHei-66" transform="translate(428.224609 0)"/>
      <use xlink:href="#MicrosoftYaHei-79" transform="translate(464.642578 0)"/>
      <use xlink:href="#MicrosoftYaHei-2f" transform="translate(517.572266 0)"/>
      <use xlink:href="#MicrosoftYaHei-5f" transform="translate(560.296875 0)"/>
      <use xlink:href="#MicrosoftYaHei-5f" transform="translate(605.121094 0)"/>
      <use xlink:href="#MicrosoftYaHei-69" transform="translate(649.945312 0)"/>
      <use xlink:href="#MicrosoftYaHei-6e" transform="translate(676.556641 0)"/>
      <use xlink:href="#MicrosoftYaHei-69" transform="translate(738.177734 0)"/>
      <use xlink:href="#MicrosoftYaHei-74" transform="translate(764.789062 0)"/>
      <use xlink:href="#MicrosoftYaHei-5f" transform="translate(802.044922 0)"/>
      <use xlink:href="#MicrosoftYaHei-5f" transform="translate(846.869141 0)"/>
     </g>
    </g>
   </g>
   <g id="text_21">
    <g clip-path="url(#p4e2d2a1712)">
     <!-- orch/web/server -->
     <g transform="translate(622.433516 659.170304) scale(0.08 -0.08)">
      <defs>
       <path id="MicrosoftYaHei-62" d="M 1159 488 
L 1159 0 
L 547 0 
L 547 5116 
L 1159 5116 
L 1159 2859 
L 1172 2859 
Q 1578 3538 2359 3538 
Q 3009 3538 3392 3080 
Q 3775 2622 3775 1828 
Q 3775 953 3345 436 
Q 2916 -81 2200 -81 
Q 1525 -81 1172 488 
L 1159 488 
z
M 1156 1422 
Q 1156 1003 1428 714 
Q 1700 425 2109 425 
Q 2597 425 2872 800 
Q 3147 1175 3147 1838 
Q 3147 2384 2890 2707 
Q 2634 3031 2191 3031 
Q 1741 3031 1448 2709 
Q 1156 2388 1156 1891 
L 1156 1422 
z
" transform="scale(0.015625)"/>
      </defs>
      <use xlink:href="#MicrosoftYaHei-6f"/>
      <use xlink:href="#MicrosoftYaHei-72" transform="translate(63.574219 0)"/>
      <use xlink:href="#MicrosoftYaHei-63" transform="translate(100.382812 0)"/>
      <use xlink:href="#MicrosoftYaHei-68" transform="translate(150.529297 0)"/>
      <use xlink:href="#MicrosoftYaHei-2f" transform="translate(212.101562 0)"/>
      <use xlink:href="#MicrosoftYaHei-77" transform="translate(254.826172 0)"/>
      <use xlink:href="#MicrosoftYaHei-65" transform="translate(333.28125 0)"/>
      <use xlink:href="#MicrosoftYaHei-62" transform="translate(390.019531 0)"/>
      <use xlink:href="#MicrosoftYaHei-2f" transform="translate(453.886719 0)"/>
      <use xlink:href="#MicrosoftYaHei-73" transform="translate(496.611328 0)"/>
      <use xlink:href="#MicrosoftYaHei-65" transform="translate(542.900391 0)"/>
      <use xlink:href="#MicrosoftYaHei-72" transform="translate(599.638672 0)"/>
      <use xlink:href="#MicrosoftYaHei-76" transform="translate(642.197266 0)"/>
      <use xlink:href="#MicrosoftYaHei-65" transform="translate(694.0625 0)"/>
      <use xlink:href="#MicrosoftYaHei-72" transform="translate(750.800781 0)"/>
     </g>
    </g>
   </g>
   <g id="text_22">
    <g clip-path="url(#p4e2d2a1712)">
     <!-- orch/web/__init__ -->
     <g transform="translate(755.386079 891.787371) scale(0.08 -0.08)">
      <use xlink:href="#MicrosoftYaHei-6f"/>
      <use xlink:href="#MicrosoftYaHei-72" transform="translate(63.574219 0)"/>
      <use xlink:href="#MicrosoftYaHei-63" transform="translate(100.382812 0)"/>
      <use xlink:href="#MicrosoftYaHei-68" transform="translate(150.529297 0)"/>
      <use xlink:href="#MicrosoftYaHei-2f" transform="translate(212.101562 0)"/>
      <use xlink:href="#MicrosoftYaHei-77" transform="translate(254.826172 0)"/>
      <use xlink:href="#MicrosoftYaHei-65" transform="translate(333.28125 0)"/>
      <use xlink:href="#MicrosoftYaHei-62" transform="translate(390.019531 0)"/>
      <use xlink:href="#MicrosoftYaHei-2f" transform="translate(453.886719 0)"/>
      <use xlink:href="#MicrosoftYaHei-5f" transform="translate(496.611328 0)"/>
      <use xlink:href="#MicrosoftYaHei-5f" transform="translate(541.435547 0)"/>
      <use xlink:href="#MicrosoftYaHei-69" transform="translate(586.259766 0)"/>
      <use xlink:href="#MicrosoftYaHei-6e" transform="translate(612.871094 0)"/>
      <use xlink:href="#MicrosoftYaHei-69" transform="translate(674.492188 0)"/>
      <use xlink:href="#MicrosoftYaHei-74" transform="translate(701.103516 0)"/>
      <use xlink:href="#MicrosoftYaHei-5f" transform="translate(738.359375 0)"/>
      <use xlink:href="#MicrosoftYaHei-5f" transform="translate(783.183594 0)"/>
     </g>
    </g>
   </g>
   <g id="text_23">
    <!-- 模块导入图 · 22 模块 / 45 条依赖 -->
    <g transform="translate(378.680859 19.190625) scale(0.15 -0.15)">
     <defs>
      <path id="MicrosoftYaHei-6a21" d="M 2050 984 
L 3859 984 
Q 3900 1213 3913 1547 
L 2950 1547 
L 2950 1372 
L 2500 1372 
L 2500 3634 
L 5844 3634 
L 5844 1372 
L 5394 1372 
L 5394 1547 
L 4344 1547 
Q 4325 1203 4288 984 
L 6250 984 
L 6250 584 
L 4525 584 
Q 5203 -175 6319 -341 
Q 6144 -572 6013 -809 
Q 4803 -456 4128 466 
Q 3681 -431 2075 -847 
Q 1969 -628 1831 -416 
Q 3303 -106 3713 584 
L 2050 584 
L 2050 984 
z
M 63 1409 
Q 603 2316 922 3509 
L 138 3509 
L 138 3922 
L 1006 3922 
L 1006 5309 
L 1444 5309 
L 1444 3922 
L 2256 3922 
L 2256 3509 
L 1444 3509 
L 1444 2684 
L 1688 2884 
Q 2044 2503 2350 2116 
L 2006 1828 
Q 1719 2244 1444 2563 
L 1444 -822 
L 1006 -822 
L 1006 2581 
Q 672 1438 275 859 
Q 188 1128 63 1409 
z
M 4713 5303 
L 5150 5303 
L 5150 4703 
L 6225 4703 
L 6225 4303 
L 5150 4303 
L 5150 3797 
L 4713 3797 
L 4713 4303 
L 3600 4303 
L 3600 3797 
L 3163 3797 
L 3163 4303 
L 2175 4303 
L 2175 4703 
L 3163 4703 
L 3163 5309 
L 3600 5309 
L 3600 4703 
L 4713 4703 
L 4713 5303 
z
M 5394 3247 
L 2950 3247 
L 2950 2778 
L 5394 2778 
L 5394 3247 
z
M 2950 1934 
L 5394 1934 
L 5394 2403 
L 2950 2403 
L 2950 1934 
z
" transform="scale(0.015625)"/>
      <path id="MicrosoftYaHei-5757" d="M 2075 2147 
L 3491 2147 
Q 3566 2731 3569 3741 
L 2444 3741 
L 2444 4178 
L 3572 4178 
Q 3581 4813 3581 5284 
L 4069 5284 
Q 4069 4725 4066 4178 
L 5606 4178 
L 5606 2147 
L 6238 2147 
L 6238 1709 
L 4131 1709 
Q 4656 309 6163 -284 
Q 5944 -503 5725 -772 
Q 4291 16 3797 1375 
Q 3375 103 1900 -853 
Q 1713 -616 1531 -416 
Q 3038 481 3400 1709 
L 2075 1709 
L 2075 2147 
z
M 88 678 
Q 531 791 994 913 
L 994 3291 
L 169 3291 
L 169 3734 
L 994 3734 
L 994 5278 
L 1463 5278 
L 1463 3734 
L 2294 3734 
L 2294 3291 
L 1463 3291 
L 1463 1038 
Q 1894 1153 2338 1278 
Q 2350 1009 2369 791 
Q 1344 516 231 178 
L 88 678 
z
M 3984 2147 
L 5125 2147 
L 5125 3741 
L 4063 3741 
Q 4047 2741 3984 2147 
z
" transform="scale(0.015625)"/>
      <path id="MicrosoftYaHei-5bfc" d="M 1750 2547 
L 5025 2547 
Q 5531 2547 5606 2866 
Q 5681 3128 5744 3559 
Q 5950 3466 6238 3366 
Q 6144 2941 6063 2672 
Q 5900 2109 5144 2109 
L 1650 2109 
Q 819 2109 819 2916 
L 819 5016 
L 5306 5016 
L 5306 3116 
L 4825 3116 
L 4825 3328 
L 1300 3328 
L 1300 2966 
Q 1300 2547 1750 2547 
z
M 94 1472 
L 4456 1472 
L 4456 1928 
L 4963 1928 
L 4963 1472 
L 6313 1472 
L 6313 1028 
L 4963 1028 
L 4963 9 
Q 4963 -734 4150 -734 
Q 3844 -734 3150 -728 
Q 3119 -497 3056 -191 
Q 3631 -234 4006 -234 
Q 4456 -234 4456 153 
L 4456 1028 
L 94 1028 
L 94 1472 
z
M 1300 4584 
L 1300 3759 
L 4825 3759 
L 4825 4584 
L 1300 4584 
z
M 1269 684 
L 1575 1009 
Q 2269 466 2613 153 
L 2250 -216 
Q 1675 334 1269 684 
z
" transform="scale(0.015625)"/>
      <path id="MicrosoftYaHei-5165" d="M 1831 4947 
L 2244 5241 
Q 2944 4809 3781 3028 
Q 4950 472 6319 -91 
L 5881 -641 
Q 4513 172 3350 2784 
Q 3256 2994 3166 3184 
Q 2441 700 469 -678 
Q 300 -428 88 -209 
Q 2116 1069 2819 3834 
Q 2328 4653 1831 4947 
z
" transform="scale(0.015625)"/>
      <path id="MicrosoftYaHei-56fe" d="M 431 5072 
L 5944 5072 
L 5944 -809 
L 5475 -809 
L 5475 -509 
L 900 -509 
L 900 -809 
L 431 -809 
L 431 5072 
z
M 5475 4622 
L 900 4622 
L 900 -59 
L 5475 -59 
L 5475 4622 
z
M 1113 3091 
Q 1969 3709 2519 4547 
L 2931 4353 
Q 2816 4181 2681 4016 
L 4894 4016 
L 4894 3647 
Q 4434 3091 3722 2644 
Q 4381 2422 5338 2297 
Q 5194 2016 5131 1828 
Q 4022 2081 3256 2400 
Q 2491 2056 1225 1728 
Q 1138 1934 1013 2128 
Q 2109 2353 2825 2644 
Q 2384 2947 2066 3341 
Q 1769 3056 1419 2784 
Q 1294 2916 1113 3091 
z
M 1563 672 
L 1694 1103 
Q 3256 897 4700 622 
L 4531 147 
Q 3150 453 1563 672 
z
M 4275 3628 
L 2347 3628 
Q 2338 3616 2328 3606 
Q 2691 3141 3244 2841 
Q 3891 3188 4275 3628 
z
M 2219 1503 
L 2344 1922 
Q 3263 1784 4275 1609 
L 4144 1172 
Q 3119 1378 2219 1503 
z
" transform="scale(0.015625)"/>
      <path id="MicrosoftYaHei-20" transform="scale(0.015625)"/>
      <path id="MicrosoftYaHei-b7" d="M 372 2113 
Q 372 2278 490 2395 
Q 609 2513 775 2513 
Q 941 2513 1061 2397 
Q 1181 2281 1181 2113 
Q 1181 1950 1064 1831 
Q 947 1713 772 1713 
Q 600 1713 486 1831 
Q 372 1950 372 2113 
z
" transform="scale(0.015625)"/>
      <path id="MicrosoftYaHei-32" d="M 2666 3572 
Q 2666 3963 2419 4186 
Q 2172 4409 1747 4409 
Q 1447 4409 1140 4256 
Q 834 4103 569 3819 
L 569 4413 
Q 806 4659 1107 4790 
Q 1409 4922 1816 4922 
Q 2472 4922 2872 4570 
Q 3272 4219 3272 3619 
Q 3272 3084 3026 2693 
Q 2781 2303 2188 1894 
Q 1581 1475 1376 1294 
Q 1172 1113 1090 947 
Q 1009 781 1009 544 
L 3416 544 
L 3416 0 
L 372 0 
L 372 241 
Q 372 659 486 951 
Q 600 1244 862 1520 
Q 1125 1797 1681 2184 
Q 2250 2584 2458 2886 
Q 2666 3188 2666 3572 
z
" transform="scale(0.015625)"/>
      <path id="MicrosoftYaHei-34" d="M 2906 4841 
L 2906 1644 
L 3631 1644 
L 3631 1138 
L 2906 1138 
L 2906 0 
L 2313 0 
L 2313 1138 
L 53 1138 
L 53 1616 
Q 656 2294 1265 3178 
Q 1875 4063 2272 4841 
L 2906 4841 
z
M 741 1644 
L 2313 1644 
L 2313 3950 
Q 1988 3366 1616 2817 
Q 1244 2269 741 1644 
z
" transform="scale(0.015625)"/>
      <path id="MicrosoftYaHei-35" d="M 3294 1494 
Q 3294 784 2823 350 
Q 2353 -84 1559 -84 
Q 878 -84 544 119 
L 544 744 
Q 1034 425 1544 425 
Q 2050 425 2361 704 
Q 2672 984 2672 1447 
Q 2672 1909 2348 2167 
Q 2025 2425 1434 2425 
Q 978 2425 613 2384 
L 791 4841 
L 3053 4841 
L 3053 4303 
L 1306 4303 
L 1206 2931 
L 1647 2950 
Q 2416 2950 2855 2567 
Q 3294 2184 3294 1494 
z
" transform="scale(0.015625)"/>
      <path id="MicrosoftYaHei-6761" d="M 375 3347 
Q 1388 4178 2113 5328 
L 2681 5328 
Q 2488 5016 2284 4728 
L 5344 4728 
L 5344 4284 
Q 4606 3572 3797 3088 
Q 4747 2734 6313 2584 
Q 6100 2291 6038 2041 
Q 4253 2347 3272 2806 
Q 2156 2284 306 1897 
Q 213 2122 81 2347 
Q 1813 2666 2772 3069 
Q 2203 3416 1700 3978 
Q 1250 3453 750 3016 
Q 525 3241 375 3347 
z
M 694 1759 
L 3013 1759 
L 3013 2378 
L 3506 2378 
L 3506 1759 
L 5675 1759 
L 5675 1316 
L 3506 1316 
L 3506 3 
Q 3506 -728 2738 -728 
Q 2400 -728 1950 -722 
Q 1913 -466 1856 -172 
Q 2294 -222 2588 -222 
Q 3013 -222 3013 234 
L 3013 1316 
L 694 1316 
L 694 1759 
z
M 4706 4309 
L 1981 4309 
Q 2531 3719 3291 3319 
Q 4031 3722 4706 4309 
z
M 4094 666 
L 4381 1022 
Q 5413 459 6200 -53 
L 5900 -491 
Q 5150 47 4094 666 
z
M 1875 1084 
L 2244 741 
Q 1481 84 569 -541 
Q 425 -353 250 -159 
Q 1113 372 1875 1084 
z
" transform="scale(0.015625)"/>
      <path id="MicrosoftYaHei-4f9d" d="M 5681 3141 
L 6038 2753 
Q 5388 2222 4644 1688 
Q 5250 531 6331 -3 
Q 6106 -253 5938 -478 
Q 4159 622 3675 3138 
Q 3413 2719 3100 2322 
L 3100 22 
Q 3631 322 4194 666 
Q 4238 366 4294 159 
Q 3650 -197 3094 -559 
Q 2906 -691 2731 -853 
L 2394 -422 
Q 2613 -216 2613 141 
L 2613 1759 
Q 2153 1266 1600 816 
Q 1494 1034 1344 1297 
Q 2784 2416 3497 3847 
L 1738 3847 
L 1738 4272 
L 6263 4272 
L 6263 3847 
L 4066 3847 
Q 4038 3791 4009 3731 
Q 4153 2831 4441 2125 
Q 5100 2613 5681 3141 
z
M 69 2272 
Q 906 3522 1369 5303 
L 1831 5166 
Q 1578 4341 1275 3625 
L 1275 -841 
L 825 -841 
L 825 2681 
Q 559 2188 263 1759 
Q 175 2022 69 2272 
z
M 3338 5116 
L 3750 5372 
Q 4075 4966 4338 4591 
L 3900 4303 
Q 3638 4741 3338 5116 
z
" transform="scale(0.015625)"/>
      <path id="MicrosoftYaHei-8d56" d="M 1413 -859 
L 1413 1022 
Q 900 97 219 -541 
Q 175 -266 81 -9 
Q 831 678 1331 1641 
L 850 1641 
L 850 1503 
L 425 1503 
L 425 3547 
L 1413 3547 
L 1413 4178 
L 213 4178 
L 213 4591 
L 1413 4591 
L 1413 5316 
L 1850 5316 
L 1850 4591 
L 3063 4591 
L 3063 4178 
L 1850 4178 
L 1850 3547 
L 2838 3547 
L 2838 1503 
L 2413 1503 
L 2413 1641 
L 1850 1641 
L 1850 1047 
L 2044 1297 
Q 2650 847 3031 503 
L 2725 128 
Q 2344 522 1850 928 
L 1850 -859 
L 1413 -859 
z
M 3313 3447 
L 4581 3447 
L 5106 4328 
L 3969 4328 
Q 3625 3778 3225 3366 
Q 3050 3534 2869 3659 
Q 3563 4384 4000 5334 
L 4463 5241 
Q 4344 4991 4219 4759 
L 5656 4759 
L 5656 4353 
L 5088 3447 
L 6013 3447 
L 6013 678 
L 5569 678 
L 5569 3016 
L 3756 3016 
L 3756 678 
L 3313 678 
L 3313 3447 
z
M 4438 2778 
L 4881 2778 
Q 4888 1728 4850 1384 
Q 4825 1028 4719 728 
Q 5531 153 6288 -466 
L 5963 -841 
Q 5238 -184 4531 322 
Q 4088 -441 3031 -859 
Q 2900 -647 2738 -434 
Q 4350 78 4419 1459 
Q 4444 1809 4438 2778 
z
M 850 2041 
L 1413 2041 
L 1413 3147 
L 850 3147 
L 850 2041 
z
M 2413 3147 
L 1850 3147 
L 1850 2041 
L 2413 2041 
L 2413 3147 
z
" transform="scale(0.015625)"/>
     </defs>
     <use xlink:href="#MicrosoftYaHei-6a21"/>
     <use xlink:href="#MicrosoftYaHei-5757" transform="translate(100 0)"/>
     <use xlink:href="#MicrosoftYaHei-5bfc" transform="translate(200 0)"/>
     <use xlink:href="#MicrosoftYaHei-5165" transform="translate(300 0)"/>
     <use xlink:href="#MicrosoftYaHei-56fe" transform="translate(400 0)"/>
     <use xlink:href="#MicrosoftYaHei-20" transform="translate(500 0)"/>
     <use xlink:href="#MicrosoftYaHei-b7" transform="translate(529.589844 0)"/>
     <use xlink:href="#MicrosoftYaHei-20" transform="translate(553.662109 0)"/>
     <use xlink:href="#MicrosoftYaHei-32" transform="translate(583.251953 0)"/>
     <use xlink:href="#MicrosoftYaHei-32" transform="translate(641.894531 0)"/>
     <use xlink:href="#MicrosoftYaHei-20" transform="translate(700.537109 0)"/>
     <use xlink:href="#MicrosoftYaHei-6a21" transform="translate(730.126953 0)"/>
     <use xlink:href="#MicrosoftYaHei-5757" transform="translate(830.126953 0)"/>
     <use xlink:href="#MicrosoftYaHei-20" transform="translate(930.126953 0)"/>
     <use xlink:href="#MicrosoftYaHei-2f" transform="translate(959.716797 0)"/>
     <use xlink:href="#MicrosoftYaHei-20" transform="translate(1002.441406 0)"/>
     <use xlink:href="#MicrosoftYaHei-34" transform="translate(1032.03125 0)"/>
     <use xlink:href="#MicrosoftYaHei-35" transform="translate(1090.673828 0)"/>
     <use xlink:href="#MicrosoftYaHei-20" transform="translate(1149.316406 0)"/>
     <use xlink:href="#MicrosoftYaHei-6761" transform="translate(1178.90625 0)"/>
     <use xlink:href="#MicrosoftYaHei-4f9d" transform="translate(1278.90625 0)"/>
     <use xlink:href="#MicrosoftYaHei-8d56" transform="translate(1378.90625 0)"/>
    </g>
   </g>
  </g>
 </g>
 <defs>
  <clipPath id="p4e2d2a1712">
   <rect x="7.2" y="25.190625" width="964.8" height="946.56"/>
  </clipPath>
 </defs>
</svg>
